<svg width="11" height="20" viewBox="0 0 11 20" xmlns="http://www.w3.org/2000/svg">
  <g id="Welcome" fill="none" fill-rule="evenodd">
    <g id="Sight-UX---BUY-&gt;-CONDITIONAL" transform="translate(-662 -262)" fill="#526877" fill-rule="nonzero">
      <g id="#market-noSelections" transform="translate(20 94)">
        <g id="Group-2" transform="translate(576 155)">
          <path d="M69.1429331 25.8229524V13.4028115c0-.2221711.1792532-.4028115.3996865-.4028115h3.5394045c.2204475 0 .3996865.1806548.3996865.4028115v12.4201409h2.7433378c.3273194.0022443.5210489.383738.3150919.6496746-1.3794499 1.7885945-3.5260084 4.9751802-4.9833265 6.4430307-.1736868.1357718-.42531.1043524-.5600114-.0706895l-4.9066556-6.364324c-.2104261-.2603209-.0300613-.6575453.3095055-.6575453l2.7432808-.0001465z" id="Path" transform="matrix(1 0 0 -1 0 46)"/>
        </g>
      </g>
    </g>
  </g>
</svg>
