<svg width="24" height="24" viewBox="0 0 24 24" xmlns="http://www.w3.org/2000/svg">
  <g id="Sight-UI-v1" stroke="none" stroke-width="1" fill="none" fill-rule="evenodd">
    <g id="Sight-UI---Selling/Buying-fractional-OT---V6.2---1" transform="translate(-548 -16)" fill="#FFF" fill-rule="nonzero">
      <g id="kyc" transform="translate(548 16)">
        <path d="M1.69259951 1.69261376h5.6593454V.0002021H0v7.35200682h1.69239741l.0002021-5.65959516zM16.6478025.0002021v1.69241166h5.6593454v5.65939306h1.6923974V0l-7.3517428.0002021zm5.659598 22.3073862h-5.6593454V24H24v-7.3520068h-1.6923974l-.0002021 5.6595951zM1.69259951 16.6479427H.00020211v7.3520068H7.352147v-1.6924117h-5.6593454l-.0002021-5.6595951z" id="Path"/>
        <path d="M20.4444444 12c0-4.64919416-3.7952502-8.44444444-8.4444444-8.44444444-4.64919416 0-8.44444444 3.79525028-8.44444444 8.44444444 0 4.6491942 3.79525028 8.4444444 8.44444444 8.4444444 4.6491942 0 8.4444444-3.7952502 8.4444444-8.4444444zM8.00470871 10.0896587c0-.70386288.57820897-1.25653898 1.25653897-1.25653898.70386286 0 1.25653892.57820897 1.25653892 1.25653898 0 .7038628-.57820893 1.2565389-1.25653892 1.2565389-.70386287.0255229-1.25653897-.5526761-1.25653897-1.2565389zm7.13663869 4.8504917c-.0500655.0500655-1.1564179 1.4077257-3.1413474 1.4077257-2.01046234 0-3.11571401-1.3321323-3.1669808-1.4077257-.30136831-.3514288-.22578497-.8795773.12565389-1.1809456.35142882-.3013683.87957728-.225785 1.18094561.1256539.0255228.0255228.67833.7794563 1.8592755.7794563 1.1809456 0 1.834748-.7539234 1.8592756-.7794563.3013683-.3514288.8295168-.4024946 1.1809456-.1001311.353389.2758606.4034746.8039839.1020938 1.1554379l.0001382-.0000151zm-.4024946-3.5683194c-.7038628 0-1.2565389-.5782089-1.2565389-1.2565389 0-.70386289.578209-1.25653898 1.2565389-1.25653898.7038629 0 1.256539.57820897 1.256539 1.25653898 0 .67833-.5526761 1.2565389-1.256539 1.2565389z" id="Shape"/>
      </g>
    </g>
  </g>
</svg>
