<svg xmlns="http://www.w3.org/2000/svg" width="30" height="30" viewBox="0 0 30 30">
    <path fill="#00193C" fill-opacity=".497" d="M15 0c-.873 0-1.579.706-1.579 1.579v4.737c0 .873.706 1.579 1.579 1.579s1.579-.706 1.579-1.58V1.58C16.579.706 15.873 0 15 0zM5.502 3.923c-.404 0-.802.16-1.11.468-.617.617-.617 1.629 0 2.246l3.355 3.33c.617.617 1.604.617 2.22 0 .617-.617.617-1.603 0-2.22l-3.33-3.355c-.309-.309-.731-.47-1.135-.47zm18.996 0c-.404 0-.826.16-1.135.468l-3.33 3.356c-.617.617-.617 1.603 0 2.22.616.617 1.603.617 2.22 0l3.355-3.33c.617-.617.617-1.629 0-2.246-.308-.308-.706-.468-1.11-.468zM1.578 13.42C.707 13.42 0 14.127 0 15s.706 1.579 1.579 1.579h4.737c.873 0 1.579-.706 1.579-1.58 0-.872-.706-1.578-1.58-1.578H1.58zm22.106 0c-.873 0-1.579.706-1.579 1.579s.706 1.579 1.58 1.579h4.736c.873 0 1.579-.706 1.579-1.58 0-.872-.706-1.578-1.579-1.578h-4.737zM8.857 19.564c-.404 0-.802.16-1.11.469l-3.355 3.33c-.617.617-.617 1.629 0 2.245.616.617 1.628.617 2.245 0l3.33-3.355c.617-.617.617-1.603 0-2.22-.308-.309-.706-.469-1.11-.469zm12.286 0c-.404 0-.802.16-1.11.469-.617.616-.617 1.603 0 2.22l3.33 3.355c.617.617 1.629.617 2.245 0 .617-.616.617-1.628 0-2.245l-3.355-3.33c-.308-.309-.706-.47-1.11-.47zM15 22.105c-.873 0-1.58.706-1.58 1.58v4.736c0 .873.707 1.579 1.58 1.579.873 0 1.579-.706 1.579-1.58v-4.736c0-.873-.706-1.579-1.58-1.579z"/>
</svg>
