<svg width="14" height="15" viewBox="0 0 14 15" xmlns="http://www.w3.org/2000/svg">
  <g id="Sight-SCALAR-UI---V2" stroke="none" stroke-width="1" fill="none" fill-rule="evenodd">
    <g id="Sight-UI---v7.5-SCALAR-market-detail---5c" transform="translate(-297 -210)">
      <g id="Group-8" transform="translate(83 -631)">
        <g id="Group-10" transform="translate(213 832)">
          <g id="Group-7">
            <g id="24px-(3)" transform="translate(0 8.5)">
              <path id="Path" d="M0 0h16v16H0z"/>
              <path d="M10.8266667 5.17333333C10.0466667 4.39333333 9.02666667 4 8 4v4l-2.82666667 2.8266667c1.56 1.56 4.09333334 1.56 5.65999997 0 1.56-1.56000003 1.56-4.09333337-.0066666-5.65333337zM8 1.33333333C4.32 1.33333333 1.33333333 4.32 1.33333333 8 1.33333333 11.68 4.32 14.6666667 8 14.6666667c3.68 0 6.6666667-2.9866667 6.6666667-6.6666667C14.6666667 4.32 11.68 1.33333333 8 1.33333333zM8 13.3333333c-2.94666667 0-5.33333333-2.3866666-5.33333333-5.3333333 0-2.94666667 2.38666666-5.33333333 5.33333333-5.33333333 2.9466667 0 5.3333333 2.38666666 5.3333333 5.33333333 0 2.9466667-2.3866666 5.3333333-5.3333333 5.3333333z" id="Shape" fill="#526877" fill-rule="nonzero"/>
            </g>
          </g>
        </g>
      </g>
    </g>
  </g>
</svg>
