<svg width="19" height="12" viewBox="0 0 19 12" xmlns="http://www.w3.org/2000/svg">
  <g id="Sight-SCALAR-UI---V2" stroke="none" stroke-width="1" fill="none" fill-rule="evenodd">
    <g id="Sight-UI---v7.5-SCALAR-market-detail---5c" transform="translate(-452 -212)" fill="#526877" fill-rule="nonzero">
      <g id="Group-8" transform="translate(83 -631)">
        <g id="Group-10" transform="translate(213 832)">
          <g id="Group-7" transform="translate(156)">
            <g id="np_eye_888692_000000" transform="translate(0 11)">
              <path d="M9.39130435.0213913C3.95686957.0213913.15182609 6 .15182609 6s2.77173913 5.9786087 9.23947826 5.9786087C15.9130435 11.9786087 18.6307826 6 18.6307826 6s-3.75-5.9786087-9.23947825-5.9786087zm0 9.7826087c-2.11956522 0-3.804-1.68443478-3.804-3.804s1.68443478-3.804 3.804-3.804c2.11956525 0 3.80399995 1.68443478 3.80399995 3.804s-1.6844347 3.804-3.80399995 3.804z" id="Shape"/>
              <path d="M11.0217391 6c0 .9008087-.7296261 1.63043478-1.63043475 1.63043478-.9008087 0-1.63043478-.72962608-1.63043478-1.63043478 0-.9008087.72962608-1.63043478 1.63043478-1.63043478.90080865 0 1.63043475.72962608 1.63043475 1.63043478" id="Path"/>
            </g>
          </g>
        </g>
      </g>
    </g>
  </g>
</svg>
