<svg xmlns="http://www.w3.org/2000/svg" width="14" height="13" viewBox="0 0 14 13">
    <g fill="#526877" fill-rule="evenodd">
        <path fill-rule="nonzero" d="M6.499 0l.199.008A2.504 2.504 0 0 1 9 2.5 2.501 2.501 0 1 1 6.5 0h-.001zM6.5 1.428A1.075 1.075 0 0 0 5.429 2.5 1.072 1.072 0 1 0 6.62 1.436L6.5 1.428z"/>
        <path d="M7.014 8.464c1.218.097 2.307.229 3.358-.326.801-.423 1.56-.94 2.463-1.156.232-.056.44-.074.665.011.555.21.669.575.237.961-1.328 1.188-2.785 2.195-4.523 2.66-.992.265-2.047.264-3.067.19-1.349-.1-2.408.384-3.31 1.317-.247.256-.41.276-.675 0a39.948 39.948 0 0 0-1.966-1.91c-.263-.239-.24-.406-.057-.666.483-.686.997-1.344 1.55-1.973.46-.523 1.032-.838 1.73-.88A45.905 45.905 0 0 0 8.68 6.06c.33-.06.708-.17.911.233.203.4 0 .737-.247 1.04-.397.489-.985.61-1.546.782-.229.07-.479.093-.784.35"/>
    </g>
</svg>
