<?xml version="1.0" standalone="no"?>
<!DOCTYPE svg PUBLIC "-//W3C//DTD SVG 1.1//EN" "http://www.w3.org/Graphics/SVG/1.1/DTD/svg11.dtd" >
<svg xmlns="http://www.w3.org/2000/svg">
<metadata></metadata>
<defs>
<font id="avertasemibold" horiz-adv-x="1427" >
<font-face units-per-em="2048" ascent="1581" descent="-467" />
<missing-glyph horiz-adv-x="548" />
<glyph horiz-adv-x="0" />
<glyph horiz-adv-x="682" />
<glyph unicode=" "  horiz-adv-x="548" />
<glyph unicode="&#x09;" horiz-adv-x="548" />
<glyph unicode="&#xa0;" horiz-adv-x="548" />
<glyph unicode="!" horiz-adv-x="552" d="M121 136q0 63 45.5 108t110.5 45q63 0 108.5 -45t45.5 -108t-45.5 -107.5t-108.5 -44.5q-65 0 -110.5 44.5t-45.5 107.5zM152 1508h260l-42 -1049h-177z" />
<glyph unicode="&#x22;" horiz-adv-x="793" d="M65 936l65 519h245l-123 -519h-187zM418 936l63 519h247l-123 -519h-187z" />
<glyph unicode="#" horiz-adv-x="1309" d="M75 314v173h253l46 301h-251v172h278l59 383h159l-60 -383h301l59 383h159l-59 -383h234l-1 -172h-260l-46 -301h257l-1 -173h-283l-60 -397h-159l61 397h-300l-62 -397h-160l63 397h-227zM486 487h302l45 301h-300z" />
<glyph unicode="$" horiz-adv-x="1173" d="M103 203l144 174q83 -80 183 -121t193 -41q92 0 148.5 42t56.5 114q0 41 -15 71.5t-50.5 54.5t-79 42t-115.5 40q-58 18 -97 31.5t-88.5 34.5t-82 41.5t-67 51t-54.5 64t-32.5 79t-12.5 98.5q0 157 101.5 262t281.5 121v258h185v-268q95 -19 188 -60.5t161 -96.5 l-139 -174q-81 58 -167 87.5t-160 29.5q-90 0 -142 -37.5t-52 -105.5q0 -66 58 -105.5t188 -81.5q51 -16 86 -27.5t78 -27.5t71.5 -30.5t61.5 -35t54 -41t42 -48t32.5 -58.5t18.5 -69t7 -82q0 -162 -103 -266.5t-283 -126.5v-245h-185v246q-238 33 -414 206z" />
<glyph unicode="%" horiz-adv-x="2096" d="M93 1065q0 111 51 203.5t145.5 147t215.5 54.5q113 0 207 -49.5t149.5 -143t55.5 -212.5q0 -112 -51 -204.5t-146 -148t-215 -55.5q-113 0 -207 50t-149.5 144t-55.5 214zM290 1063q0 -102 62.5 -166.5t153.5 -64.5q97 0 158 67t61 164q0 102 -63 165.5t-156 63.5 q-95 0 -155.5 -66t-60.5 -163zM637 35l643 1449l184 -80l-642 -1449zM1178 391q0 111 51 203.5t145.5 147t214.5 54.5q114 0 208 -50t149.5 -143t55.5 -212q0 -112 -50.5 -204t-146 -147.5t-216.5 -55.5q-113 0 -206.5 50.5t-149 144t-55.5 212.5zM1373 390q0 -102 63 -166 t155 -64q97 0 158 66.5t61 163.5q0 101 -63 165t-156 64q-96 0 -157 -66t-61 -163z" />
<glyph unicode="&#x26;" horiz-adv-x="1372" d="M103 424q0 139 72.5 248.5t193.5 178.5l-163 204q14 118 76 213t159.5 149t213.5 54q74 0 140 -18.5t113 -46.5t87.5 -67.5t65.5 -76t46 -77.5l-196 -74q-17 31 -35.5 55t-46.5 48t-67.5 37.5t-86.5 13.5q-50 0 -90.5 -15t-67.5 -40.5t-44 -56t-24 -65.5l515 -643h4 q57 118 57 245l223 4q0 -113 -31.5 -228.5t-97.5 -211.5v-2l202 -252h-270l-91 113h-4q-147 -129 -380 -129q-132 0 -239.5 54.5t-170.5 155.5t-63 230zM341 438q0 -105 72 -170t187 -65q129 0 227 71l1 4l-326 407q-78 -41 -119.5 -107t-41.5 -140z" />
<glyph unicode="'" horiz-adv-x="440" d="M65 936l65 519h245l-123 -519h-187z" />
<glyph unicode="(" horiz-adv-x="625" d="M112 605q0 263 64.5 501.5t182.5 420.5l173 -80q-99 -180 -152.5 -396.5t-53.5 -445.5q0 -449 203 -842l-176 -79q-241 397 -241 921z" />
<glyph unicode=")" horiz-adv-x="625" d="M93 1447l173 80q118 -182 182.5 -420.5t64.5 -501.5q0 -524 -241 -921l-176 79q203 393 203 842q0 229 -53.5 445.5t-152.5 396.5z" />
<glyph unicode="*" horiz-adv-x="833" d="M93 1225l75 127l185 -118l-8 221h145l-10 -221l187 116l73 -125l-195 -102l195 -101l-73 -127l-184 117l7 -221h-145l8 221l-185 -117l-74 127l194 99z" />
<glyph unicode="+" horiz-adv-x="1183" d="M107 462v210h378v379h212v-379h378v-210h-378v-377h-212v377h-378z" />
<glyph unicode="," horiz-adv-x="488" d="M56 -270l65 518h245l-142 -518h-168z" />
<glyph unicode="-" horiz-adv-x="834" d="M109 521v223h616v-223h-616z" />
<glyph unicode="." horiz-adv-x="552" d="M121 136q0 63 45.5 108t110.5 45q63 0 108.5 -45t45.5 -108t-45.5 -107.5t-108.5 -44.5q-65 0 -110.5 44.5t-45.5 107.5z" />
<glyph unicode="/" horiz-adv-x="881" d="M-67 -145l784 1747l181 -84l-782 -1747z" />
<glyph unicode="0" horiz-adv-x="1295" d="M107 703q0 212 64 374.5t187 253.5t289 91q119 0 218.5 -48.5t171 -139t111.5 -226.5t40 -305q0 -213 -63.5 -375t-187 -253t-290.5 -91q-119 0 -218 48.5t-170.5 139t-111.5 227t-40 304.5zM348 703q0 -232 81 -365.5t219 -133.5q141 0 220 132t79 367t-80.5 367 t-218.5 132q-140 0 -220 -132t-80 -367z" />
<glyph unicode="1" horiz-adv-x="817" d="M36 1108l413 298h193v-1406h-238v1122l-254 -190z" />
<glyph unicode="2" horiz-adv-x="1090" d="M79 1155q65 122 179 194t277 72q87 0 166 -28.5t140 -80.5t97 -131.5t36 -173.5q0 -121 -52 -231t-181 -244l-299 -311v-4h548v-217h-905l-3 158l452 476q100 105 150 185t50 163q0 94 -61 156.5t-155 62.5q-172 0 -268 -167z" />
<glyph unicode="3" horiz-adv-x="1126" d="M58 282l205 91q69 -168 274 -168q102 0 171.5 58t69.5 151q0 89 -68.5 149.5t-194.5 60.5h-107v202h129q104 0 154.5 52.5t50.5 133.5q0 83 -61.5 136.5t-149.5 53.5q-152 0 -233 -122l-189 102q52 108 165 174t262 66q125 0 224.5 -43t159.5 -129t60 -202 q0 -103 -49.5 -186t-137.5 -132v-2q105 -46 166 -136t61 -212q0 -117 -60.5 -207.5t-167 -139.5t-239.5 -49q-179 0 -310 82.5t-185 215.5z" />
<glyph unicode="4" horiz-adv-x="1184" d="M65 237v162l653 1007h199v-957h196v-212h-196v-237h-237v237h-615zM343 442h346v564z" />
<glyph unicode="5" horiz-adv-x="1155" d="M74 211l172 138q47 -68 121 -107t166 -39q126 0 201 71t75 180q0 57 -23.5 104.5t-62.5 77t-87.5 46t-99.5 16.5q-138 0 -229 -74l-129 45l42 737h761v-217h-539l-18 -316q104 30 182 30q91 0 172 -31.5t141.5 -88.5t95.5 -143.5t35 -189.5q0 -137 -61.5 -243t-175 -165 t-260.5 -59q-146 0 -271.5 59t-207.5 169z" />
<glyph unicode="6" horiz-adv-x="1209" d="M105 550q0 172 56 327t153.5 272t232 197t289.5 109l75 -199q-410 -114 -527 -433l3 -1q124 75 284 75q92 0 172 -30.5t139 -87.5t92.5 -143t33.5 -191q0 -132 -66 -237.5t-180.5 -164.5t-254.5 -59q-105 0 -197 40.5t-159.5 113.5t-106.5 179.5t-39 232.5zM336 522 q0 -139 83.5 -228.5t202.5 -89.5q108 0 178.5 72t70.5 172q0 103 -71 168.5t-187 65.5q-83 0 -155.5 -40t-121.5 -101v-19z" />
<glyph unicode="7" horiz-adv-x="1012" d="M48 1189v217h873v-157l-516 -1277l-239 44l490 1173h-608z" />
<glyph unicode="8" horiz-adv-x="1179" d="M88 388q0 137 67.5 233.5t174.5 138.5v3q-67 29 -120 111t-53 184q0 113 57.5 196.5t154.5 125t221 41.5q128 0 226.5 -43.5t154 -126t55.5 -193.5q0 -101 -53 -183.5t-121 -111.5v-3q108 -42 176 -138.5t68 -233.5q0 -121 -68 -213.5t-182.5 -141t-255.5 -48.5 q-144 0 -258.5 50.5t-179 143t-64.5 209.5zM330 418q0 -94 75.5 -157.5t184.5 -63.5q115 0 188 65t73 156q0 100 -72.5 163.5t-188.5 63.5t-188 -63.5t-72 -163.5zM383 1037q0 -78 58 -126.5t149 -48.5q93 0 151 48.5t58 126.5q0 75 -59.5 125.5t-149.5 50.5t-148.5 -52 t-58.5 -124z" />
<glyph unicode="9" horiz-adv-x="1196" d="M91 960q0 133 66 239t180 164.5t254 58.5q105 0 197.5 -40.5t160 -112.5t106.5 -176.5t39 -226.5q0 -178 -57.5 -336.5t-157.5 -275t-235.5 -195.5t-291.5 -108l-75 199q201 56 337.5 160t198.5 271l-2 2q-124 -75 -284 -75q-92 0 -171.5 31t-138.5 88t-92.5 142.5 t-33.5 190.5zM330 958q0 -104 69.5 -169t186.5 -65q82 0 154.5 40t122.5 101v19q0 142 -75 230t-193 88q-117 0 -191 -71.5t-74 -172.5z" />
<glyph unicode=":" horiz-adv-x="552" d="M113 136q0 63 45.5 108t110.5 45q63 0 108.5 -45t45.5 -108t-45.5 -107.5t-108.5 -44.5q-65 0 -110.5 44.5t-45.5 107.5zM113 861q0 63 45.5 108t110.5 45q63 0 108.5 -45t45.5 -108t-45.5 -107.5t-108.5 -44.5q-65 0 -110.5 44.5t-45.5 107.5z" />
<glyph unicode=";" horiz-adv-x="507" d="M56 -270l65 518h245l-142 -518h-168zM86 861q0 63 45.5 108t110.5 45q63 0 108.5 -45t45.5 -108t-45.5 -107.5t-108.5 -44.5q-65 0 -110.5 44.5t-45.5 107.5z" />
<glyph unicode="&#x3c;" horiz-adv-x="1189" d="M116 476v171l942 419v-231l-632 -271l632 -274v-226z" />
<glyph unicode="=" horiz-adv-x="1211" d="M139 229v210h968v-210h-968zM139 695v210h968v-210h-968z" />
<glyph unicode="&#x3e;" horiz-adv-x="1189" d="M131 64v226l632 274l-632 271v231l942 -419v-171z" />
<glyph unicode="?" horiz-adv-x="948" d="M33 1335q70 90 175.5 139.5t230.5 49.5q83 0 158 -25t135 -73t95 -124.5t35 -172.5q0 -58 -14.5 -110.5t-42 -97t-56 -78.5t-67.5 -72q-17 -16 -49 -45.5t-49 -46.5t-37.5 -41t-30.5 -45.5t-11 -43.5l-5 -90h-203l-1 103q0 21 2.5 40.5t10 39.5t13 34.5t20 35t21.5 31 t26 32.5t26 29.5t29.5 31t28.5 29.5q64 68 97.5 124.5t33.5 126.5q0 85 -51 132.5t-133 47.5q-60 0 -119 -32t-97 -88zM248 136q0 63 45.5 108t110.5 45q63 0 108.5 -45t45.5 -108t-45.5 -107.5t-108.5 -44.5q-65 0 -110.5 44.5t-45.5 107.5z" />
<glyph unicode="@" horiz-adv-x="1843" d="M92 487q0 76 14.5 156t47.5 165.5t82 163t122 147t162.5 120.5t210 81t258.5 30q172 0 316 -56.5t241 -156.5t151 -237.5t54 -297.5q0 -43 -6 -88.5t-20.5 -97t-36.5 -98t-58 -90t-80.5 -75t-107 -50.5t-136.5 -19q-120 0 -187 80q-24 29 -36 87h-5q-43 -70 -113.5 -108 t-157.5 -38q-152 0 -247.5 107t-95.5 282q0 45 9.5 95t28 104.5t51 102.5t74.5 87t102 62t130 23q82 0 145.5 -37.5t102.5 -107.5h4l14 131h233l-55 -536q-3 -30 -3 -52q0 -58 19 -80t58 -22q45 0 84 34.5t62 87.5t36 109.5t13 105.5q0 120 -41.5 227t-116 186.5t-185 125.5 t-240.5 46q-108 0 -203 -23t-166.5 -63t-131 -94.5t-99.5 -117t-67.5 -131.5t-40 -137t-12.5 -134q0 -127 47.5 -241.5t126.5 -196.5t185.5 -130t221.5 -48q214 0 423 106l76 -126q-224 -148 -499 -148q-160 0 -300 59t-241 162.5t-159 249.5t-58 314zM699 514 q0 -90 50 -146.5t127 -56.5q65 0 117.5 37t80 94t27.5 121q0 87 -49.5 142.5t-124.5 55.5q-99 0 -163.5 -72.5t-64.5 -174.5z" />
<glyph unicode="A" d="M51 0l543 1455h241l546 -1455h-259l-110 313h-594l-109 -313h-258zM493 527h444l-221 630h-2z" />
<glyph unicode="B" horiz-adv-x="1327" d="M178 0v1455h506q228 0 350.5 -89.5t122.5 -265.5q0 -107 -53.5 -196.5t-159.5 -131.5v-4q131 -33 208.5 -128t77.5 -241q0 -88 -29.5 -160.5t-87.5 -126t-150 -83t-210 -29.5h-575zM425 222h255q134 1 213 52.5t79 151.5q0 99 -74 155.5t-213 56.5h-260v-416zM425 852 h236q48 0 90.5 11t77.5 33.5t55.5 60.5t20.5 88q1 89 -65 139q-64 49 -199 49h-5h-211v-381z" />
<glyph unicode="C" horiz-adv-x="1494" d="M112 722q0 125 30.5 237.5t92.5 205.5t149 161.5t205.5 106.5t256.5 38q158 0 308.5 -69t264.5 -210l-182 -154q-73 91 -175.5 145t-215.5 54q-140 0 -248 -64t-168 -181t-60 -270q0 -147 61 -261.5t169.5 -177.5t245.5 -63q118 0 218 53.5t173 144.5l182 -155 q-100 -126 -245.5 -201t-327.5 -75q-119 0 -228 30t-201.5 91.5t-160.5 148t-106 206t-38 259.5z" />
<glyph unicode="D" horiz-adv-x="1508" d="M178 0v1455h463q170 0 312 -54t239 -150t150.5 -231t53.5 -295t-52 -294t-147 -229.5t-236.5 -148.5t-313.5 -53h-469zM425 222h207q151 0 267.5 65.5t179 180t62.5 257.5q0 146 -62.5 262t-176 181t-256.5 65h-221v-1011z" />
<glyph unicode="E" horiz-adv-x="1244" d="M178 0v1455h915v-222h-668v-401h540v-222h-540v-388h711v-222h-958z" />
<glyph unicode="F" horiz-adv-x="1219" d="M178 0v1455h951v-222h-704v-435h591v-222h-591v-576h-247z" />
<glyph unicode="G" horiz-adv-x="1555" d="M112 725q0 159 51 296.5t143.5 237t229.5 156t301 56.5q159 0 309 -61t259 -180l-175 -150q-161 158 -394 158q-98 0 -183.5 -36t-148 -101.5t-98.5 -162.5t-36 -213q0 -145 57.5 -261t167 -183.5t251.5 -67.5q180 0 324 97v245h-356v222h602v-608q-101 -84 -252.5 -133 t-317.5 -49q-156 0 -290.5 51t-233 144.5t-154.5 233.5t-56 309z" />
<glyph unicode="H" horiz-adv-x="1508" d="M178 0v1455h247v-650h658v650h247v-1455h-247v583h-658v-583h-247z" />
<glyph unicode="I" horiz-adv-x="622" d="M187 0v1455h248v-1455h-248z" />
<glyph unicode="J" horiz-adv-x="1038" d="M63 171l139 179q44 -53 108.5 -90.5t127.5 -37.5q196 0 196 277v956h249v-958q0 -122 -24 -214.5t-75 -159.5t-135 -101.5t-201 -34.5q-108 0 -212.5 47.5t-172.5 136.5z" />
<glyph unicode="K" horiz-adv-x="1360" d="M178 0v1455h247v-697h4l559 697h314l-546 -649l563 -806h-307l-419 607h-4l-164 -195v-412h-247z" />
<glyph unicode="L" horiz-adv-x="1173" d="M178 0v1455h247v-1233h674v-222h-921z" />
<glyph unicode="M" horiz-adv-x="1814" d="M178 0v1455h248l480 -871h4l478 871h248v-1455h-247v975h-3l-398 -695h-162l-398 695h-3v-975h-247z" />
<glyph unicode="N" horiz-adv-x="1563" d="M178 0v1455h245l710 -1044h5v1044h247v-1455h-252l-704 1029h-4v-1029h-247z" />
<glyph unicode="O" horiz-adv-x="1693" d="M112 728q0 158 54 295.5t149.5 236t233.5 155t299 56.5q156 0 291.5 -54t233 -150.5t153 -235.5t55.5 -303t-55.5 -303.5t-153 -235.5t-233 -150.5t-291.5 -54.5q-161 0 -299 56.5t-233.5 155t-149.5 236t-54 296.5zM369 728q0 -106 35.5 -200.5t97.5 -163.5t152 -109 t194 -40q100 0 188 38.5t151 106t100 163t37 205.5t-37 205.5t-100 162.5t-151 105.5t-188 38.5q-104 0 -194 -40t-152 -109t-97.5 -163t-35.5 -200z" />
<glyph unicode="P" horiz-adv-x="1289" d="M178 0v1455h527q127 0 224 -35.5t155.5 -99.5t88 -148.5t29.5 -188.5q0 -116 -38 -205t-107.5 -145.5t-165.5 -85t-215 -28.5h-251v-519h-247zM425 742h227q147 0 220.5 66.5t73.5 179.5q0 116 -72 180.5t-205 64.5h-244v-491z" />
<glyph unicode="Q" horiz-adv-x="1736" d="M112 728q0 158 54 295.5t149.5 236t233.5 155t299 56.5q156 0 291.5 -54t233 -150.5t153 -235.5t55.5 -303q0 -255 -129 -442l170 -152l-139 -176l-184 168q-192 -142 -451 -142q-161 0 -299 56.5t-233.5 155t-149.5 236t-54 296.5zM369 728q0 -110 37 -206t100.5 -163 t152.5 -105.5t189 -38.5q150 0 266 80l-146 133l138 166l152 -136q66 120 66 270q0 105 -34.5 199t-96 163t-151 109.5t-194.5 40.5q-100 0 -189 -38.5t-152.5 -105.5t-100.5 -162.5t-37 -205.5z" />
<glyph unicode="R" horiz-adv-x="1350" d="M178 0v1455h537q126 0 222.5 -35.5t156 -99.5t89 -148.5t29.5 -188.5q0 -175 -83.5 -285.5t-235.5 -152.5v-4l372 -541h-297l-347 519h-196v-519h-247zM425 741h236q145 0 220 67t75 180q0 115 -72.5 180t-205.5 65h-253v-492z" />
<glyph unicode="S" horiz-adv-x="1211" d="M85 212l156 192q77 -93 176.5 -142.5t196.5 -49.5q118 0 180 47.5t62 130.5q0 27 -6.5 49.5t-16.5 40t-30 34.5t-39.5 29t-53 26.5t-61.5 25.5t-74 27q-54 19 -94 35t-88.5 40t-83 48.5t-69.5 58t-56 71t-34.5 86t-13.5 103.5q0 112 62 206t167.5 147.5t229.5 53.5h3 q251 0 479 -179l-147 -194q-179 149 -335 149q-87 0 -144.5 -45.5t-58.5 -124.5q0 -17 3.5 -32.5t9 -28t18 -25.5t22.5 -22t31.5 -21t35.5 -19.5t44 -20t48 -19.5t56 -21l4 -2q8 -3 23 -9q67 -26 100 -39.5t87.5 -39.5t82 -47t63.5 -54.5t52.5 -68.5t29 -83.5t12.5 -105.5 q0 -87 -30 -160t-79.5 -123t-115 -85t-135.5 -51t-141 -16q-144 0 -280 57t-248 171z" />
<glyph unicode="T" horiz-adv-x="1207" d="M65 1233v222h1077v-222h-417v-1233h-247v1233h-413z" />
<glyph unicode="U" horiz-adv-x="1473" d="M157 598v857h247v-838q0 -116 39 -206t114.5 -141.5t177.5 -51.5q149 0 241.5 107t92.5 292v838h247v-857q0 -284 -155 -449t-426 -165q-129 0 -235.5 41t-182.5 118.5t-118 193.5t-42 261z" />
<glyph unicode="V" horiz-adv-x="1416" d="M61 1455h267l382 -1100h4l385 1100h266l-542 -1455h-219z" />
<glyph unicode="W" horiz-adv-x="2119" d="M65 1455h264l312 -1050h2l286 1050h263l284 -1053h2l313 1053h263l-461 -1455h-231l-298 1094h-3l-304 -1094h-231z" />
<glyph unicode="X" horiz-adv-x="1422" d="M65 0l484 729l-473 726h285l349 -532h4l348 532h283l-471 -726l483 -729h-290l-354 536h-4l-355 -536h-289z" />
<glyph unicode="Y" horiz-adv-x="1279" d="M28 1455h283l325 -564h6l323 564h286l-489 -812v-643h-248v643z" />
<glyph unicode="Z" horiz-adv-x="1283" d="M117 0v194l716 1035v4h-684v222h1009v-191l-727 -1039v-3h730v-222h-1044z" />
<glyph unicode="[" horiz-adv-x="682" d="M121 -301v1800h458v-177h-255v-1445h255v-178h-458z" />
<glyph unicode="\" horiz-adv-x="898" d="M-17 1518l181 84l784 -1747l-183 -84z" />
<glyph unicode="]" horiz-adv-x="682" d="M103 -123h255v1445h-255v177h458v-1800h-458v178z" />
<glyph unicode="^" horiz-adv-x="962" d="M112 1023l281 432h174l283 -432h-201l-169 277l-175 -277h-193z" />
<glyph unicode="_" horiz-adv-x="1087" d="M-5 -56h1096v-157h-1096v157z" />
<glyph unicode="`" horiz-adv-x="1031" d="M237 1398l253 -1l234 -296h-233z" />
<glyph unicode="a" horiz-adv-x="1252" d="M88 495q0 111 37 208t101 165t153 107t191 39q195 0 309 -135h4v120h229v-999h-219v134h-3q-114 -150 -318 -150q-103 0 -192.5 36.5t-153.5 102.5t-101 162t-37 210zM321 494q0 -133 80 -217.5t207 -84.5q119 0 201.5 84.5t82.5 217.5t-80.5 222.5t-202.5 89.5 q-123 0 -205.5 -85.5t-82.5 -226.5z" />
<glyph unicode="b" horiz-adv-x="1271" d="M149 0v1508h229v-629h5q114 135 316 135q102 0 191 -39t153 -107t101 -165t37 -208q0 -114 -37 -210t-101 -162t-153.5 -102.5t-192.5 -36.5q-211 0 -325 150h-4v-134h-219zM369 494q0 -134 84 -218t208 -84q127 0 207 84.5t80 217.5q0 141 -82.5 226.5t-205.5 85.5 q-128 0 -209.5 -89t-81.5 -223z" />
<glyph unicode="c" horiz-adv-x="1090" d="M91 498q0 151 66 268.5t183.5 182.5t267.5 65q121 0 234 -48t186 -138l-156 -135q-45 53 -109 83t-143 30q-133 0 -214.5 -84.5t-81.5 -221.5q0 -138 82.5 -223t214.5 -85q79 0 144.5 30t108.5 78l158 -140q-69 -78 -181.5 -127t-250.5 -49q-146 0 -262 64t-181.5 181.5 t-65.5 268.5z" />
<glyph unicode="d" horiz-adv-x="1270" d="M89 495q0 111 37 208t101 165t153 107t191 39q202 0 316 -135h5v629h229v-1508h-219v134h-4q-114 -150 -325 -150q-103 0 -192.5 36.5t-153.5 102.5t-101 162t-37 210zM322 494q0 -133 80 -217.5t207 -84.5q124 0 208 84t84 218t-81.5 223t-209.5 89q-123 0 -205.5 -85.5 t-82.5 -226.5z" />
<glyph unicode="e" horiz-adv-x="1150" d="M90 500q0 113 37 209t102 163t155 104.5t193 37.5q145 0 256 -65t170 -179t59 -259q0 -55 -6 -91h-728q22 -106 98.5 -167t186.5 -61q155 0 249 118l160 -137q-68 -87 -174.5 -138t-246.5 -51q-145 0 -261 63t-183 181.5t-67 271.5zM332 605h500q-22 93 -84.5 147 t-158.5 54q-95 0 -164 -52.5t-93 -148.5z" />
<glyph unicode="f" horiz-adv-x="702" d="M75 804v195h112v183q0 167 77.5 254.5t224.5 87.5q140 0 251 -69l-51 -194q-107 51 -167 51q-53 0 -79.5 -37.5t-26.5 -117.5v-158h246v-195h-246v-804h-229v804h-112z" />
<glyph unicode="g" horiz-adv-x="1244" d="M86 510q0 144 60.5 259.5t169.5 180.5t246 65q87 0 167.5 -31t142.5 -90h4v105h229v-896q0 -93 -17 -171t-55.5 -144t-97 -111.5t-144.5 -71t-195 -25.5q-113 0 -218 27t-189 77l54 202q96 -51 169.5 -75t170.5 -24q142 0 220 70t78 176v106h-4q-117 -122 -303 -122 q-139 0 -250 60.5t-174.5 173.5t-63.5 259zM319 517q0 -132 80.5 -210.5t204.5 -78.5q125 0 203.5 82.5t78.5 209.5q0 126 -80.5 205t-201.5 79q-127 0 -206 -80t-79 -207z" />
<glyph unicode="h" horiz-adv-x="1225" d="M149 0v1508h229v-634h4q62 69 149.5 104.5t188.5 35.5q85 0 151.5 -23.5t117 -72.5t77.5 -130t27 -190v-599h-229v540q0 144 -54.5 205.5t-162.5 61.5q-126 0 -197.5 -76.5t-71.5 -221.5v-508h-229z" />
<glyph unicode="i" horiz-adv-x="557" d="M125 1300q0 63 45 107.5t110 44.5q63 0 108.5 -45t45.5 -107q0 -63 -45.5 -107.5t-108.5 -44.5q-65 0 -110 44.5t-45 107.5zM164 0v999h229v-999h-229z" />
<glyph unicode="j" horiz-adv-x="510" d="M-101 -385l39 199q47 -29 91 -29q51 0 83 37.5t32 109.5v1067h229v-1067q0 -169 -78.5 -261t-200.5 -92q-58 0 -99.5 7t-95.5 29zM101 1300q0 63 45 107.5t110 44.5q63 0 108.5 -45t45.5 -107q0 -63 -45.5 -107.5t-108.5 -44.5q-65 0 -110 44.5t-45 107.5z" />
<glyph unicode="k" horiz-adv-x="1095" d="M149 0v1508h229v-965h3l408 456h272l-360 -404l365 -595h-258l-259 420h-4l-167 -187v-233h-229z" />
<glyph unicode="l" horiz-adv-x="557" d="M164 0v1508h229v-1508h-229z" />
<glyph unicode="m" horiz-adv-x="1837" d="M149 0v999h229v-138h3q61 74 142.5 113.5t169.5 39.5q209 0 298 -166h4q63 81 155 123.5t203 42.5q169 0 260 -108.5t91 -327.5v-579h-229v521q0 286 -196 286q-100 0 -166.5 -82.5t-66.5 -225.5v-499h-229v521q0 286 -199 286q-105 0 -172.5 -82.5t-67.5 -225.5v-498 h-229z" />
<glyph unicode="n" horiz-adv-x="1215" d="M149 0v999h229v-137h3q63 74 150 113t185 39q172 0 269.5 -104.5t97.5 -321.5v-589h-229v530q0 78 -14 132t-43 85.5t-67.5 45.5t-92.5 14q-118 0 -188.5 -80t-70.5 -224v-502h-229z" />
<glyph unicode="o" horiz-adv-x="1229" d="M90 498q0 147 64.5 264t185 184.5t275.5 67.5q152 0 271 -64.5t186 -182.5t67 -269q0 -150 -67 -267.5t-186.5 -182t-270.5 -64.5q-116 0 -215 39t-166.5 107.5t-105.5 163.5t-38 204zM323 498q0 -130 82.5 -218t209.5 -88q123 0 207 86.5t84 219.5q0 136 -83 222 t-208 86q-130 0 -211 -88t-81 -220z" />
<glyph unicode="p" horiz-adv-x="1271" d="M149 -405v1404h229v-121h4q116 136 317 136q102 0 191 -39t153 -107t101 -165t37 -208q0 -114 -37 -210t-101 -162t-153.5 -102.5t-192.5 -36.5q-202 0 -316 139h-3v-528h-229zM369 494q0 -134 84 -218t208 -84q127 0 207 84.5t80 217.5q0 141 -82.5 226.5t-205.5 85.5 q-128 0 -209.5 -89t-81.5 -223z" />
<glyph unicode="q" horiz-adv-x="1262" d="M90 495q0 111 37 208t101 165t153 107t191 39q201 0 317 -136h4v121h229v-1404h-229v528h-3q-114 -139 -316 -139q-103 0 -192.5 36.5t-153.5 102.5t-101 162t-37 210zM323 494q0 -133 80 -217.5t207 -84.5q124 0 208 84t84 218t-81.5 223t-209.5 89q-123 0 -205.5 -85.5 t-82.5 -226.5z" />
<glyph unicode="r" horiz-adv-x="762" d="M149 0v999h229v-150h3q59 80 139.5 122.5t171.5 42.5q20 0 28 -1v-255q-39 3 -69 3q-127 0 -200 -81t-73 -206v-474h-229z" />
<glyph unicode="s" horiz-adv-x="919" d="M65 130l116 172q61 -61 129.5 -89.5t158.5 -28.5q65 0 102.5 27t37.5 71q0 36 -42.5 59.5t-155.5 62.5q-55 19 -95.5 37t-82 46t-68 60.5t-43 79.5t-16.5 104q0 122 99.5 202.5t252.5 80.5q198 0 354 -125l-115 -180q-58 54 -123.5 80.5t-127.5 26.5q-40 0 -74.5 -22 t-34.5 -64q0 -35 39.5 -62.5t119.5 -59.5q14 -6 42 -17q52 -20 77 -30t64.5 -29t58 -33t43 -37t35 -47t18.5 -56.5t8 -71.5q0 -64 -23 -118.5t-68 -96t-117 -65t-165 -23.5q-238 0 -404 146z" />
<glyph unicode="t" horiz-adv-x="747" d="M46 804v195h122v332l229 25v-357h294v-195h-294v-467q0 -75 23.5 -107t72.5 -32q67 0 148 43l60 -198q-54 -29 -109.5 -44t-144.5 -15q-132 0 -205.5 84t-73.5 248v488h-122z" />
<glyph unicode="u" horiz-adv-x="1183" d="M130 391v608h229v-546q0 -99 21.5 -156.5t63.5 -80.5t113 -23q51 0 97 21.5t82 61.5t57 103.5t21 141.5v478h229v-999h-229v130h-3q-59 -71 -139 -108.5t-169 -37.5q-85 0 -151.5 22.5t-117 69.5t-77.5 126.5t-27 188.5z" />
<glyph unicode="v" horiz-adv-x="1093" d="M40 999h245l261 -712h4l256 712h247l-396 -999h-219z" />
<glyph unicode="w" horiz-adv-x="1579" d="M48 999h232l216 -657h4l193 657h191l196 -658h3l216 658h232l-343 -999h-212l-187 629h-4l-187 -629h-207z" />
<glyph unicode="x" horiz-adv-x="1079" d="M56 0l351 509l-349 490h265l212 -314h5l214 314h263l-347 -489l353 -510h-255l-227 315h-4l-228 -315h-253z" />
<glyph unicode="y" horiz-adv-x="1095" d="M39 999h241l276 -674h2l257 674h240l-549 -1404h-241l180 461z" />
<glyph unicode="z" horiz-adv-x="1001" d="M82 0v161l514 640v3h-480v195h796v-158l-522 -643v-3h514v-195h-822z" />
<glyph unicode="{" horiz-adv-x="732" d="M103 506v177q34 1 61 7.5t44.5 14.5t30 21.5t18.5 25t9.5 29.5t4 30t0.5 31v408q0 106 64 177.5t169 71.5h135v-158h-48q-32 0 -57 -12.5t-38 -33.5t-19.5 -43.5t-6.5 -45.5v-395q0 -91 -26 -141.5t-88 -72.5v-2q45 -15 67.5 -35t34.5 -62.5t12 -118.5v-371 q0 -77 26 -113t95 -36h48v-157h-135q-99 0 -166 68t-67 180v398q0 22 -0.5 35t-4 31.5t-9.5 29.5t-18.5 23.5t-30 19.5t-44 12.5t-61.5 6.5z" />
<glyph unicode="|" horiz-adv-x="647" d="M224 -235v1744h198v-1744h-198z" />
<glyph unicode="}" horiz-adv-x="732" d="M93 -141h48q69 0 95 36t26 113v371q0 76 12 118.5t34.5 62.5t67.5 35v2q-62 22 -88 72.5t-26 141.5v395q0 23 -6.5 45.5t-19.5 43.5t-38 33.5t-57 12.5h-48v158h135q105 0 169 -71.5t64 -177.5v-408q0 -19 0.5 -31t4 -30t9.5 -29.5t18.5 -25t30 -21.5t44.5 -14.5t61 -7.5 v-177q-35 -1 -61.5 -6.5t-44 -12.5t-30 -19.5t-18.5 -23.5t-9.5 -29.5t-4 -31.5t-0.5 -35v-398q0 -112 -67 -180t-166 -68h-135v157z" />
<glyph unicode="~" horiz-adv-x="1163" d="M112 478q40 113 111 180.5t169 67.5q44 0 88.5 -10.5t61 -17.5t60.5 -26q84 -44 144 -44q43 0 80.5 26.5t60.5 71.5l164 -57q-37 -115 -109 -186.5t-164 -71.5q-41 0 -84.5 10.5t-65.5 19.5t-66 29q-87 40 -140 40q-91 0 -145 -99z" />
<glyph unicode="&#xa1;" horiz-adv-x="552" d="M121 861q0 63 45.5 107.5t110.5 44.5q63 0 108.5 -44.5t45.5 -107.5t-45.5 -108t-108.5 -45q-65 0 -110.5 45t-45.5 108zM152 -511l41 1049h177l42 -1049h-260z" />
<glyph unicode="&#xa2;" horiz-adv-x="1122" d="M91 609q0 205 120 343.5t318 166.5v198h179v-199q98 -15 184 -60.5t146 -118.5l-155 -135q-46 53 -111.5 83t-145.5 30q-135 0 -218.5 -85t-83.5 -220q0 -136 84 -222t219 -86q81 0 148 30t110 78l158 -141q-56 -63 -142.5 -108t-192.5 -61v-200h-179v198 q-196 24 -317 163.5t-121 345.5z" />
<glyph unicode="&#xa3;" horiz-adv-x="1159" d="M92 0v222h145v445h-118v169h118v99q0 102 22.5 184.5t61.5 137.5t93 92t114.5 53t129.5 16q119 0 223.5 -52.5t174.5 -147.5l-124 -166q-48 64 -112 99.5t-130 35.5q-46 0 -81 -12.5t-65 -42.5t-46 -86.5t-16 -136.5v-73h332v-169h-329v-445h617v-222h-1010z" />
<glyph unicode="&#xa4;" horiz-adv-x="1045" d="M42 425l162 162q-60 93 -60 205q0 114 61 206l-163 163l107 106l162 -161q97 63 207 63q112 0 207 -63l162 163l106 -107l-162 -162q63 -97 63 -208q0 -114 -63 -207l161 -162l-105 -106l-163 163q-94 -62 -207 -62q-112 0 -206 62l-162 -161zM305 796q1 -88 63.5 -150.5 t150.5 -63.5q87 1 149.5 63.5t64.5 149.5q-2 89 -64.5 151.5t-150.5 62.5q-87 -2 -149.5 -64t-63.5 -149z" />
<glyph unicode="&#xa5;" horiz-adv-x="1188" d="M14 1404h286l292 -568h4l291 568l286 -1l-313 -558h171v-142h-251l-54 -97h305v-142h-313v-464h-248v464h-328v142h320l-54 97h-266v142h186z" />
<glyph unicode="&#xa6;" horiz-adv-x="647" d="M224 -234v722h198v-722h-198zM224 789v720h198v-720h-198z" />
<glyph unicode="&#xa7;" horiz-adv-x="1130" d="M112 560q0 91 41 160t118 109q-113 90 -113 236q0 149 107 245.5t286 96.5q106 0 220.5 -43t197.5 -113l-136 -166q-141 103 -269 103q-70 0 -112 -32.5t-42 -85.5q0 -23 9 -42.5t21.5 -33t40.5 -29.5t52.5 -26.5t69.5 -29.5q16 -7 47 -19q64 -26 94 -38.5t78 -35.5 t70 -40t51.5 -43t42 -53t22 -63.5t9.5 -79.5q0 -80 -40.5 -146.5t-115.5 -109.5q60 -44 90 -102t30 -142q0 -160 -113.5 -255t-301.5 -95q-129 0 -244.5 48.5t-208.5 144.5l139 167q68 -73 150.5 -109.5t159.5 -36.5q72 0 118.5 35.5t46.5 95.5q0 25 -8.5 45t-22.5 35 t-42.5 30.5t-57 27.5t-76.5 30q-44 17 -73 28.5t-68 28.5t-64.5 30.5t-56.5 32.5t-50.5 36.5t-39.5 40.5t-31 47.5t-18 54t-7 61.5zM346 603q0 -61 52.5 -101t188.5 -92q5 -2 36 -14t46 -18q55 14 84 49t29 80q0 26 -8.5 46.5t-23.5 37t-47.5 34.5t-68.5 33.5t-97 39.5 q-12 5 -36 14.5t-36 13.5q-57 -11 -88 -45.5t-31 -77.5z" />
<glyph unicode="&#xa8;" horiz-adv-x="1054" d="M170 1263q0 63 45 107.5t110 44.5q63 0 108.5 -45t45.5 -107q0 -63 -45.5 -107.5t-108.5 -44.5q-65 0 -110 44.5t-45 107.5zM580 1263q0 61 44.5 105.5t107.5 44.5q62 0 107 -44.5t45 -105.5t-45 -105t-107 -44q-63 0 -107.5 43.5t-44.5 105.5z" />
<glyph unicode="&#xa9;" horiz-adv-x="1460" d="M92 651q0 129 50 247t135 205t204 138.5t251 51.5q131 0 249.5 -51.5t203 -138.5t134 -205t49.5 -247q0 -128 -50 -246t-134.5 -205t-203.5 -139t-251 -52t-250.5 51.5t-203 138t-134 205t-49.5 247.5zM249 649q0 -99 37 -188.5t100.5 -154.5t153 -103.5t189.5 -38.5 t190 39t153.5 104.5t101 155.5t37.5 188q0 99 -37 188.5t-100.5 155t-152.5 104t-189 38.5q-101 0 -191 -39t-154 -104.5t-101 -155.5t-37 -189zM411 647q0 94 38 169t115.5 121t183.5 46q73 0 142 -31.5t121 -95.5l-102 -87q-30 35 -72 57.5t-89 22.5q-85 0 -137.5 -54.5 t-52.5 -147.5q0 -89 52 -144t138 -55q48 0 90.5 21t70.5 57l102 -88q-46 -57 -112.5 -90.5t-150.5 -33.5q-69 0 -129.5 21.5t-107 62.5t-73.5 105t-27 144z" />
<glyph unicode="&#xaa;" horiz-adv-x="862" d="M65 1105q0 137 79.5 224.5t205.5 87.5q59 0 113.5 -24t95.5 -68h2v81h161v-600h-161v70h-1q-76 -82 -201 -82q-132 0 -213 86.5t-81 224.5zM232 1105q0 -69 46.5 -113t118.5 -44q68 0 114 43.5t46 113.5q0 69 -45.5 114.5t-113.5 45.5q-71 0 -118.5 -45t-47.5 -115z" />
<glyph unicode="&#xab;" horiz-adv-x="1012" d="M84 504l252 445h228l-253 -445l250 -437h-229zM475 504l252 445h228l-253 -445l250 -437h-229z" />
<glyph unicode="&#xac;" horiz-adv-x="1131" d="M103 641v205h925v-535h-207v330h-718z" />
<glyph unicode="&#xad;" horiz-adv-x="834" d="M109 521v223h616v-223h-616z" />
<glyph unicode="&#xae;" horiz-adv-x="1469" d="M92 651q0 129 50.5 248.5t136 207t205 139.5t252.5 52t252 -52t204 -139.5t134.5 -206.5t49.5 -249q0 -129 -50 -248t-135 -206.5t-205 -139.5t-253 -52q-132 0 -251 52t-204.5 139t-135.5 206t-50 249zM249 649.5q0 -99.5 37.5 -190t101.5 -156t154 -104.5t191 -39 t191.5 39.5t154.5 105.5t101.5 156.5t37.5 189.5q0 100 -37.5 190.5t-101 156.5t-153.5 105t-190 39q-102 0 -192.5 -39.5t-155 -106t-102 -157t-37.5 -190zM506 324v663h252q114 0 172 -61t58 -161q0 -76 -34.5 -126.5t-96.5 -72.5l163 -242h-160l-147 225h-71v-225h-136z M643 672h84q58 0 88.5 26.5t30.5 69.5q0 42 -30.5 68.5t-83.5 26.5h-89v-191z" />
<glyph unicode="&#xaf;" horiz-adv-x="912" d="M151 1159v193h610v-193h-610z" />
<glyph unicode="&#xb0;" horiz-adv-x="803" d="M112 1186q0 76 40.5 142t107 104.5t141.5 38.5t142 -38.5t107 -105.5t40 -144q0 -115 -85.5 -197.5t-203.5 -82.5t-203.5 83t-85.5 200zM269 1185q0 -54 38.5 -92t93.5 -38t93.5 38t38.5 92q0 55 -39 94.5t-92.5 39.5t-93 -39.5t-39.5 -94.5z" />
<glyph unicode="&#xb1;" horiz-adv-x="1255" d="M121 727v210h378v379h212v-379h378v-210h-378v-377h-212v377h-378zM166 -8v210h968v-210h-968z" />
<glyph unicode="&#xb2;" horiz-adv-x="704" d="M47 1589q42 71 120.5 115.5t180.5 44.5q77 0 142 -30t105.5 -89t40.5 -136q0 -79 -31 -140.5t-119 -142.5l-152 -139v-4h311v-175h-590l-3 129l272 267q62 61 88.5 101t26.5 81q0 44 -29.5 71.5t-76.5 27.5q-38 0 -77 -20.5t-66 -64.5z" />
<glyph unicode="&#xb3;" horiz-adv-x="718" d="M36 1073l173 70q17 -49 50 -72.5t88 -23.5q54 0 86 28t32 75q0 45 -36 72.5t-99 27.5h-61v144h75q50 0 80 25t30 63q0 43 -29.5 69.5t-79.5 26.5q-84 0 -116 -75l-160 86q30 70 105.5 114.5t173.5 44.5q125 0 207 -61t82 -169q0 -124 -107 -190v-2q65 -28 100 -79.5 t35 -123.5q0 -111 -84.5 -178t-219.5 -67q-118 0 -205 55t-120 140z" />
<glyph unicode="&#xb4;" horiz-adv-x="1031" d="M306 1101l235 296l252 1l-254 -297h-233z" />
<glyph unicode="&#xb5;" horiz-adv-x="1187" d="M138 -405v1404h229v-519q0 -288 217 -288q104 0 171 82.5t67 225.5v499h229v-999h-210l-13 132h-2q-57 -71 -132 -109.5t-159 -38.5q-115 0 -178 66l-3 -1q13 -92 13 -220v-234h-229z" />
<glyph unicode="&#xb6;" horiz-adv-x="1079" d="M92 1002q0 164 111.5 261.5t305.5 97.5h383v-1671h-142v1518h-127v-1208h-147v647q-174 11 -279 103.5t-105 251.5z" />
<glyph unicode="&#xb7;" horiz-adv-x="561" d="M123 502q0 63 45.5 108t110.5 45q63 0 108.5 -45t45.5 -108t-45.5 -107.5t-108.5 -44.5q-65 0 -110.5 44.5t-45.5 107.5z" />
<glyph unicode="&#xb8;" horiz-adv-x="774" d="M204 -264q40 -14 103 -14q42 0 73 15t31 46q0 29 -45.5 49t-126.5 20v74l40 86h136l-37 -74l2 -3q93 -4 141 -45.5t48 -118.5q0 -73 -60 -116.5t-184 -43.5q-59 0 -121 12v113z" />
<glyph unicode="&#xb9;" horiz-adv-x="577" d="M36 1550l275 186h149v-843h-192v604l-137 -95z" />
<glyph unicode="&#xba;" horiz-adv-x="796" d="M65 1107q0 136 90 223t232 87q141 0 232.5 -86.5t91.5 -223.5q0 -138 -91.5 -225t-232.5 -87q-142 0 -232 88t-90 224zM239 1107q0 -69 41.5 -114.5t106.5 -45.5q64 0 107 45t43 115t-42.5 115t-107.5 45t-106.5 -45.5t-41.5 -114.5z" />
<glyph unicode="&#xbb;" horiz-adv-x="1012" d="M57 949h228l252 -445l-248 -437h-229l250 437zM448 949h228l252 -445l-248 -437h-229l250 437z" />
<glyph unicode="&#xbc;" horiz-adv-x="1655" d="M36 1270l275 186h149v-843h-192v604l-137 -95zM411 35l642 1449l185 -80l-642 -1449zM949 131v118l395 594h150v-546h116v-166h-116v-131h-191v131h-354zM1160 285h158v248z" />
<glyph unicode="&#xbd;" horiz-adv-x="1723" d="M36 1270l275 186h149v-843h-192v604l-137 -95zM411 35l642 1449l185 -80l-642 -1449zM1066 696q42 71 120.5 115.5t180.5 44.5q77 0 142 -30t105.5 -89t40.5 -136q0 -78 -31 -140t-119 -143l-152 -139v-4h311v-175h-590l-3 129l272 267q62 61 88.5 101t26.5 81 q0 44 -29.5 71.5t-76.5 27.5q-38 0 -77 -20.5t-66 -64.5z" />
<glyph unicode="&#xbe;" horiz-adv-x="1754" d="M36 793l173 70q17 -49 50 -72.5t88 -23.5q54 0 86 28t32 75q0 45 -36 72.5t-99 27.5h-61v144h75q50 0 80 25t30 63q0 43 -29.5 69.5t-79.5 26.5q-84 0 -116 -75l-160 86q30 70 105.5 114.5t173.5 44.5q125 0 207 -61t82 -169q0 -124 -107 -190v-2q65 -28 100 -79.5 t35 -123.5q0 -111 -84.5 -178t-219.5 -67q-118 0 -205 54.5t-120 140.5zM510 35l642 1449l185 -80l-642 -1449zM1048 131v118l395 594h150v-546h116v-166h-116v-131h-191v131h-354zM1259 285h158v248z" />
<glyph unicode="&#xbf;" horiz-adv-x="916" d="M86 -132q0 58 14.5 110t42 97t56 79t67.5 72q17 16 49 45.5t49 46.5t37.5 41t30.5 45.5t11 43.5l5 90h203l1 -103q0 -21 -2.5 -40.5t-10 -39.5t-13 -34.5t-20 -35t-21.5 -31.5t-26 -32.5t-26 -29t-29.5 -31t-28.5 -29.5q-64 -68 -97.5 -124.5t-33.5 -126.5 q0 -85 51 -132.5t133 -47.5q60 0 119 32t97 88l171 -159q-70 -90 -175.5 -139.5t-230.5 -49.5q-83 0 -158 25t-135 73t-95 124.5t-35 172.5zM390 861q0 63 45.5 107.5t108.5 44.5q65 0 110.5 -44.5t45.5 -107.5t-45.5 -108t-110.5 -45q-63 0 -108.5 45t-45.5 108z" />
<glyph unicode="&#xc0;" d="M51 0l543 1455h241l546 -1455h-259l-110 313h-594l-109 -313h-258zM333 1908l253 -1l234 -296h-233zM493 527h444l-221 630h-2z" />
<glyph unicode="&#xc1;" d="M51 0l543 1455h241l546 -1455h-259l-110 313h-594l-109 -313h-258zM493 527h444l-221 630h-2zM613 1611l235 296l252 1l-254 -297h-233z" />
<glyph unicode="&#xc2;" d="M51 0l543 1455h241l546 -1455h-259l-110 313h-594l-109 -313h-258zM374 1607l231 301h206l241 -301h-225l-112 154h-6l-111 -154h-224zM493 527h444l-221 630h-2z" />
<glyph unicode="&#xc3;" d="M51 0l543 1455h241l546 -1455h-259l-110 313h-594l-109 -313h-258zM325 1674q32 104 91.5 164.5t141.5 60.5q37 0 72 -10t52 -19t49 -28q3 -2 13 -8.5t13 -8.5t12 -7.5t13.5 -7.5t12.5 -6t13.5 -5.5t12.5 -3.5t14 -3t14 -1q37 0 67 27.5t50 77.5l138 -46 q-30 -114 -89.5 -179t-137.5 -65q-34 0 -69.5 11t-56.5 22.5t-53 31.5q-25 15 -40 23t-36 15t-39 7q-76 0 -118 -106zM493 527h444l-221 630h-2z" />
<glyph unicode="&#xc4;" d="M51 0l543 1455h241l546 -1455h-259l-110 313h-594l-109 -313h-258zM355 1773q0 63 45 107.5t110 44.5q63 0 108.5 -45t45.5 -107q0 -63 -45.5 -107.5t-108.5 -44.5q-65 0 -110 44.5t-45 107.5zM493 527h444l-221 630h-2zM765 1773q0 61 44.5 105.5t107.5 44.5 q62 0 107 -44.5t45 -105.5t-45 -105t-107 -44q-63 0 -107.5 43.5t-44.5 105.5z" />
<glyph unicode="&#xc5;" d="M51 0l543 1455h241l546 -1455h-259l-110 313h-594l-109 -313h-258zM492 1773q0 90 63 152.5t158 62.5q93 0 157.5 -61.5t64.5 -153.5q0 -89 -63 -152t-159 -63q-91 0 -156 62t-65 153zM493 527h444l-221 630h-2zM634 1775q0 -33 23 -55.5t56 -22.5t56.5 23t23.5 56 q0 32 -23.5 55t-56.5 23t-56 -23.5t-23 -55.5z" />
<glyph unicode="&#xc6;" horiz-adv-x="1955" d="M14 0l748 1455h1044v-222h-670v-399h549v-222h-549v-390h711v-222h-958v313h-454l-160 -313h-261zM544 527h345v670h-3z" />
<glyph unicode="&#xc7;" horiz-adv-x="1494" d="M112 722q0 125 30.5 237.5t92.5 205.5t149 161.5t205.5 106.5t256.5 38q158 0 308.5 -69t264.5 -210l-182 -154q-73 91 -175.5 145t-215.5 54q-140 0 -248 -64t-168 -181t-60 -270q0 -147 61 -261.5t169.5 -177.5t245.5 -63q118 0 218 53.5t173 144.5l182 -155 q-100 -124 -242.5 -199t-321.5 -77l-25 -49l2 -3q93 -4 141 -45.5t48 -118.5q0 -73 -60 -116.5t-184 -43.5q-59 0 -121 12v113q40 -14 103 -14q42 0 73 15t31 46q0 29 -45.5 49t-126.5 20v74l30 64v6q-129 19 -239 75t-193 146t-130 219.5t-47 285.5z" />
<glyph unicode="&#xc8;" horiz-adv-x="1244" d="M178 0v1455h915v-222h-668v-401h540v-222h-540v-388h711v-222h-958zM402 1908l253 -1l234 -296h-233z" />
<glyph unicode="&#xc9;" horiz-adv-x="1244" d="M178 0v1455h915v-222h-668v-401h540v-222h-540v-388h711v-222h-958zM453 1611l235 296l252 1l-254 -297h-233z" />
<glyph unicode="&#xca;" horiz-adv-x="1244" d="M178 0v1455h915v-222h-668v-401h540v-222h-540v-388h711v-222h-958zM316 1607l231 301h206l241 -301h-225l-112 154h-6l-111 -154h-224z" />
<glyph unicode="&#xcb;" horiz-adv-x="1244" d="M178 0v1455h915v-222h-668v-401h540v-222h-540v-388h711v-222h-958zM297 1773q0 63 45 107.5t110 44.5q63 0 108.5 -45t45.5 -107q0 -63 -45.5 -107.5t-108.5 -44.5q-65 0 -110 44.5t-45 107.5zM707 1773q0 61 44.5 105.5t107.5 44.5q62 0 107 -44.5t45 -105.5t-45 -105 t-107 -44q-63 0 -107.5 43.5t-44.5 105.5z" />
<glyph unicode="&#xcc;" horiz-adv-x="622" d="M-67 1908l253 -1l234 -296h-233zM187 0v1455h248v-1455h-248z" />
<glyph unicode="&#xcd;" horiz-adv-x="622" d="M187 0v1455h248v-1455h-248zM210 1611l235 296l252 1l-254 -297h-233z" />
<glyph unicode="&#xce;" horiz-adv-x="622" d="M-33 1607l231 301h206l241 -301h-225l-112 154h-6l-111 -154h-224zM187 0v1455h248v-1455h-248z" />
<glyph unicode="&#xcf;" horiz-adv-x="622" d="M-52 1773q0 63 45 107.5t110 44.5q63 0 108.5 -45t45.5 -107q0 -63 -45.5 -107.5t-108.5 -44.5q-65 0 -110 44.5t-45 107.5zM187 0v1455h248v-1455h-248zM358 1773q0 61 44.5 105.5t107.5 44.5q62 0 107 -44.5t45 -105.5t-45 -105t-107 -44q-63 0 -107.5 43.5 t-44.5 105.5z" />
<glyph unicode="&#xd0;" horiz-adv-x="1508" d="M57 617v210h121v628h463q170 0 312 -54t239 -150t150.5 -231t53.5 -295t-52 -294t-147 -229.5t-236.5 -148.5t-313.5 -53h-469v617h-121zM425 222h207q151 0 267.5 65.5t179 180t62.5 257.5q0 146 -62.5 262t-176 181t-256.5 65h-221v-406h248v-210h-248v-395z" />
<glyph unicode="&#xd1;" horiz-adv-x="1563" d="M178 0v1455h245l710 -1044h5v1044h247v-1455h-252l-704 1029h-4v-1029h-247zM392 1674q32 104 91.5 164.5t141.5 60.5q37 0 72 -10t52 -19t49 -28q3 -2 13 -8.5t13 -8.5t12 -7.5t13.5 -7.5t12.5 -6t13.5 -5.5t12.5 -3.5t14 -3t14 -1q36 0 66.5 27.5t50.5 77.5l138 -46 q-30 -114 -89.5 -179t-137.5 -65q-34 0 -69.5 11t-56.5 22.5t-53 31.5q-25 15 -40 23t-36 15t-39 7q-76 0 -118 -106z" />
<glyph unicode="&#xd2;" horiz-adv-x="1693" d="M112 728q0 158 54 295.5t149.5 236t233.5 155t299 56.5q156 0 291.5 -54t233 -150.5t153 -235.5t55.5 -303t-55.5 -303.5t-153 -235.5t-233 -150.5t-291.5 -54.5q-161 0 -299 56.5t-233.5 155t-149.5 236t-54 296.5zM369 728q0 -106 35.5 -200.5t97.5 -163.5t152 -109 t194 -40q203 0 339.5 145.5t136.5 367.5t-136.5 367t-339.5 145q-104 0 -194 -40t-152 -109t-97.5 -163t-35.5 -200zM477 1908l253 -1l234 -296h-233z" />
<glyph unicode="&#xd3;" horiz-adv-x="1693" d="M112 728q0 158 54 295.5t149.5 236t233.5 155t299 56.5q156 0 291.5 -54t233 -150.5t153 -235.5t55.5 -303t-55.5 -303.5t-153 -235.5t-233 -150.5t-291.5 -54.5q-161 0 -299 56.5t-233.5 155t-149.5 236t-54 296.5zM369 728q0 -106 35.5 -200.5t97.5 -163.5t152 -109 t194 -40q203 0 339.5 145.5t136.5 367.5t-136.5 367t-339.5 145q-104 0 -194 -40t-152 -109t-97.5 -163t-35.5 -200zM743 1611l235 296l252 1l-254 -297h-233z" />
<glyph unicode="&#xd4;" horiz-adv-x="1693" d="M112 728q0 158 54 295.5t149.5 236t233.5 155t299 56.5q156 0 291.5 -54t233 -150.5t153 -235.5t55.5 -303t-55.5 -303.5t-153 -235.5t-233 -150.5t-291.5 -54.5q-161 0 -299 56.5t-233.5 155t-149.5 236t-54 296.5zM369 728q0 -106 35.5 -200.5t97.5 -163.5t152 -109 t194 -40q100 0 188 38.5t151 106t100 163t37 205.5t-37 205.5t-100 162.5t-151 105.5t-188 38.5q-104 0 -194 -40t-152 -109t-97.5 -163t-35.5 -200zM509 1607l231 301h206l241 -301h-225l-112 154h-6l-111 -154h-224z" />
<glyph unicode="&#xd5;" horiz-adv-x="1693" d="M112 728q0 158 54 295.5t149.5 236t233.5 155t299 56.5q156 0 291.5 -54t233 -150.5t153 -235.5t55.5 -303t-55.5 -303.5t-153 -235.5t-233 -150.5t-291.5 -54.5q-161 0 -299 56.5t-233.5 155t-149.5 236t-54 296.5zM369 728q0 -106 35.5 -200.5t97.5 -163.5t152 -109 t194 -40q100 0 188 38.5t151 106t100 163t37 205.5t-37 205.5t-100 162.5t-151 105.5t-188 38.5q-104 0 -194 -40t-152 -109t-97.5 -163t-35.5 -200zM460 1674q32 104 91.5 164.5t141.5 60.5q37 0 72 -10t52 -19t49 -28q3 -2 13 -8.5t13 -8.5t12 -7.5t13.5 -7.5t12.5 -6 t13.5 -5.5t12.5 -3.5t14 -3t14 -1q36 0 66.5 27.5t50.5 77.5l138 -46q-30 -114 -89.5 -179t-137.5 -65q-34 0 -69.5 11t-56.5 22.5t-53 31.5q-25 15 -40 23t-36 15t-39 7q-76 0 -118 -106z" />
<glyph unicode="&#xd6;" horiz-adv-x="1693" d="M112 728q0 158 54 295.5t149.5 236t233.5 155t299 56.5q156 0 291.5 -54t233 -150.5t153 -235.5t55.5 -303t-55.5 -303.5t-153 -235.5t-233 -150.5t-291.5 -54.5q-161 0 -299 56.5t-233.5 155t-149.5 236t-54 296.5zM369 728q0 -106 35.5 -200.5t97.5 -163.5t152 -109 t194 -40q203 0 339.5 145.5t136.5 367.5t-136.5 367t-339.5 145q-104 0 -194 -40t-152 -109t-97.5 -163t-35.5 -200zM490 1773q0 63 45 107.5t110 44.5q63 0 108.5 -45t45.5 -107q0 -63 -45.5 -107.5t-108.5 -44.5q-65 0 -110 44.5t-45 107.5zM900 1773q0 61 44.5 105.5 t107.5 44.5q62 0 107 -44.5t45 -105.5t-45 -105t-107 -44q-63 0 -107.5 43.5t-44.5 105.5z" />
<glyph unicode="&#xd7;" horiz-adv-x="1073" d="M103 280l288 288l-288 287l145 146l286 -288l289 289l147 -146l-289 -290l288 -288l-145 -143l-288 286l-287 -286z" />
<glyph unicode="&#xd8;" horiz-adv-x="1693" d="M112 728q0 158 54 295.5t149.5 236t233.5 155t299 56.5q260 0 450 -142l170 184l139 -127l-174 -190q148 -194 148 -468q0 -164 -55.5 -303.5t-153 -235.5t-233 -150.5t-291.5 -54.5q-238 0 -420 119l-160 -174l-141 131l157 170q-83 99 -127.5 226t-44.5 272zM369 728 q0 -176 90 -308l671 727q-123 93 -282 93q-104 0 -194 -40t-152 -109t-97.5 -163t-35.5 -200zM596 286q112 -71 252 -71q100 0 188 38.5t151 106t100 163t37 205.5q0 153 -69 275z" />
<glyph unicode="&#xd9;" horiz-adv-x="1473" d="M157 598v857h247v-838q0 -116 39 -206t114.5 -141.5t177.5 -51.5q149 0 241.5 107t92.5 292v838h247v-857q0 -284 -155 -449t-426 -165q-129 0 -235.5 41t-182.5 118.5t-118 193.5t-42 261zM404 1908l253 -1l234 -296h-233z" />
<glyph unicode="&#xda;" horiz-adv-x="1473" d="M157 598v857h247v-838q0 -177 89 -288t242 -111q149 0 241.5 107t92.5 292v838h247v-857q0 -284 -155 -449t-426 -165q-129 0 -235.5 41t-182.5 118.5t-118 193.5t-42 261zM578 1611l235 296l252 1l-254 -297h-233z" />
<glyph unicode="&#xdb;" horiz-adv-x="1473" d="M157 598v857h247v-838q0 -116 39 -206t114.5 -141.5t177.5 -51.5q149 0 241.5 107t92.5 292v838h247v-857q0 -284 -155 -449t-426 -165q-129 0 -235.5 41t-182.5 118.5t-118 193.5t-42 261zM396 1607l231 301h206l241 -301h-225l-112 154h-6l-111 -154h-224z" />
<glyph unicode="&#xdc;" horiz-adv-x="1473" d="M157 598v857h247v-838q0 -116 39 -206t114.5 -141.5t177.5 -51.5q149 0 241.5 107t92.5 292v838h247v-857q0 -284 -155 -449t-426 -165q-129 0 -235.5 41t-182.5 118.5t-118 193.5t-42 261zM377 1773q0 63 45 107.5t110 44.5q63 0 108.5 -45t45.5 -107 q0 -63 -45.5 -107.5t-108.5 -44.5q-65 0 -110 44.5t-45 107.5zM787 1773q0 61 44.5 105.5t107.5 44.5q62 0 107 -44.5t45 -105.5t-45 -105t-107 -44q-63 0 -107.5 43.5t-44.5 105.5z" />
<glyph unicode="&#xdd;" horiz-adv-x="1279" d="M28 1455h283l325 -564h6l323 564h286l-489 -812v-643h-248v643zM498 1611l235 296l252 1l-254 -297h-233z" />
<glyph unicode="&#xde;" horiz-adv-x="1330" d="M178 0v1455h247v-269h322q127 0 223 -35.5t155 -99.5t88 -148.5t29 -188.5q0 -114 -37.5 -202t-107.5 -144t-165.5 -84.5t-214.5 -28.5h-292v-255h-247zM425 477h267q146 0 219.5 66t73.5 176q0 116 -71.5 180.5t-204.5 64.5h-284v-487z" />
<glyph unicode="&#xdf;" horiz-adv-x="1309" d="M151 0v995q0 266 132.5 397.5t384.5 131.5q114 0 205.5 -29t150 -80t90 -118t31.5 -145q0 -36 -8 -71.5t-25.5 -74t-50.5 -73.5t-79 -61v-3q118 -57 185 -169t67 -247q0 -214 -126 -341.5t-330 -127.5h-211v206h155q120 0 200 75.5t80 191.5q0 56 -21 107t-59 90.5 t-96.5 62.5t-128.5 23h-97v195h86q58 1 103 17t68.5 38t38.5 51t19 50t4 40q0 35 -15 67.5t-43.5 59.5t-76.5 43t-108 16q-148 0 -222 -74t-74 -242v-1001h-229z" />
<glyph unicode="&#xe0;" horiz-adv-x="1252" d="M88 495q0 111 37 208t101 165t153 107t191 39q195 0 309 -135h4v120h229v-999h-219v134h-3q-114 -150 -318 -150q-103 0 -192.5 36.5t-153.5 102.5t-101 162t-37 210zM299 1435l253 -1l234 -296h-233zM321 494q0 -133 80 -217.5t207 -84.5q119 0 201.5 84.5t82.5 217.5 t-80.5 222.5t-202.5 89.5q-123 0 -205.5 -85.5t-82.5 -226.5z" />
<glyph unicode="&#xe1;" horiz-adv-x="1252" d="M88 495q0 111 37 208t101 165t153 107t191 39q195 0 309 -135h4v120h229v-999h-219v134h-3q-114 -150 -318 -150q-103 0 -192.5 36.5t-153.5 102.5t-101 162t-37 210zM321 494q0 -133 80 -217.5t207 -84.5q119 0 201.5 84.5t82.5 217.5t-80.5 222.5t-202.5 89.5 q-123 0 -205.5 -85.5t-82.5 -226.5zM479 1138l235 296l252 1l-254 -297h-233z" />
<glyph unicode="&#xe2;" horiz-adv-x="1252" d="M88 495q0 111 37 208t101 165t153 107t191 39q195 0 309 -135h4v120h229v-999h-219v134h-3q-114 -150 -318 -150q-103 0 -192.5 36.5t-153.5 102.5t-101 162t-37 210zM284 1134l231 301h206l241 -301h-225l-112 154h-6l-111 -154h-224zM321 494q0 -133 80 -217.5 t207 -84.5q119 0 201.5 84.5t82.5 217.5t-80.5 222.5t-202.5 89.5q-123 0 -205.5 -85.5t-82.5 -226.5z" />
<glyph unicode="&#xe3;" horiz-adv-x="1252" d="M88 495q0 111 37 208t101 165t153 107t191 39q195 0 309 -135h4v120h229v-999h-219v134h-3q-114 -150 -318 -150q-103 0 -192.5 36.5t-153.5 102.5t-101 162t-37 210zM235 1201q32 104 91.5 164.5t141.5 60.5q37 0 72 -10t52 -19t49 -28q1 -1 14 -9t15.5 -9.5t13.5 -8 t15 -8.5t13.5 -6t15.5 -5.5t14.5 -3t16.5 -1.5q36 0 66.5 27.5t50.5 77.5l138 -46q-30 -114 -89.5 -179t-137.5 -65q-34 0 -69.5 11t-56.5 22.5t-53 31.5q-25 15 -40 23t-36 15t-39 7q-76 0 -118 -106zM321 494q0 -133 80 -217.5t207 -84.5q119 0 201.5 84.5t82.5 217.5 t-80.5 222.5t-202.5 89.5q-123 0 -205.5 -85.5t-82.5 -226.5z" />
<glyph unicode="&#xe4;" horiz-adv-x="1252" d="M88 495q0 111 37 208t101 165t153 107t191 39q195 0 309 -135h4v120h229v-999h-219v134h-3q-114 -150 -318 -150q-103 0 -192.5 36.5t-153.5 102.5t-101 162t-37 210zM265 1300q0 63 45 107.5t110 44.5q63 0 108.5 -45t45.5 -107q0 -63 -45.5 -107.5t-108.5 -44.5 q-65 0 -110 44.5t-45 107.5zM321 494q0 -133 80 -217.5t207 -84.5q119 0 201.5 84.5t82.5 217.5t-80.5 222.5t-202.5 89.5q-123 0 -205.5 -85.5t-82.5 -226.5zM675 1300q0 61 44.5 105.5t107.5 44.5q62 0 107 -44.5t45 -105.5t-45 -105t-107 -44q-63 0 -107.5 43.5 t-44.5 105.5z" />
<glyph unicode="&#xe5;" horiz-adv-x="1252" d="M88 495q0 111 37 208t101 165t153 107t191 39q195 0 309 -135h4v120h229v-999h-219v134h-3q-114 -150 -318 -150q-103 0 -192.5 36.5t-153.5 102.5t-101 162t-37 210zM321 494q0 -133 80 -217.5t207 -84.5q119 0 201.5 84.5t82.5 217.5t-80.5 222.5t-202.5 89.5 q-123 0 -205.5 -85.5t-82.5 -226.5zM402 1300q0 90 63 152.5t158 62.5q93 0 157.5 -61.5t64.5 -153.5q0 -89 -63 -152t-159 -63q-91 0 -156 62t-65 153zM544 1302q0 -33 23 -55.5t56 -22.5t56.5 23t23.5 56q0 32 -23.5 55t-56.5 23t-56 -23.5t-23 -55.5z" />
<glyph unicode="&#xe6;" horiz-adv-x="1615" d="M62 292q0 151 100.5 235.5t294.5 85.5h199v12q0 101 -38.5 141.5t-116.5 40.5q-139 0 -278 -68l-87 183q62 34 163 63.5t219 29.5q211 0 288 -152h4q59 72 142 111.5t184 39.5q123 0 219 -65t149 -179.5t53 -258.5q0 -55 -6 -91h-669q20 -104 89 -166t172 -62 q61 0 116.5 33t97.5 85l159 -137q-68 -86 -167 -137.5t-218 -51.5q-214 0 -345 158h-3q-53 -68 -142.5 -113t-211.5 -45q-93 0 -164.5 23.5t-115 65.5t-65.5 97t-22 122zM292 302q0 -52 41 -86t117 -34q79 0 141.5 50t65.5 98v93l-177 -1q-188 0 -188 -120zM888 612h438 q-23 89 -78 141.5t-129 52.5q-84 0 -145.5 -51.5t-85.5 -142.5z" />
<glyph unicode="&#xe7;" horiz-adv-x="1090" d="M91 498q0 151 66 268.5t183.5 182.5t267.5 65q121 0 234 -48t186 -138l-156 -135q-45 53 -109 83t-143 30q-133 0 -214.5 -84.5t-81.5 -221.5q0 -138 82.5 -223t214.5 -85q79 0 144.5 30t108.5 78l158 -140q-64 -74 -168 -121.5t-232 -53.5l-24 -47l2 -3q93 -4 141 -45.5 t48 -118.5q0 -73 -60 -116.5t-184 -43.5q-59 0 -121 12v113q40 -14 103 -14q42 0 73 15t31 46q0 29 -45.5 49t-126.5 20v74l28 60v7q-182 33 -294 169.5t-112 335.5z" />
<glyph unicode="&#xe8;" horiz-adv-x="1150" d="M90 500q0 113 37 209t102 163t155 104.5t193 37.5q145 0 256 -65t170 -179t59 -259q0 -55 -6 -91h-728q22 -106 98.5 -167t186.5 -61q155 0 249 118l160 -137q-68 -87 -174.5 -138t-246.5 -51q-145 0 -261 63t-183 181.5t-67 271.5zM270 1435l253 -1l234 -296h-233z M332 605h500q-22 93 -84.5 147t-158.5 54q-95 0 -164 -52.5t-93 -148.5z" />
<glyph unicode="&#xe9;" horiz-adv-x="1150" d="M90 500q0 113 37 209t102 163t155 104.5t193 37.5q145 0 256 -65t170 -179t59 -259q0 -55 -6 -91h-728q22 -106 98.5 -167t186.5 -61q155 0 249 118l160 -137q-68 -87 -174.5 -138t-246.5 -51q-145 0 -261 63t-183 181.5t-67 271.5zM332 605h500q-22 93 -84.5 147 t-158.5 54q-95 0 -164 -52.5t-93 -148.5zM455 1138l235 296l252 1l-254 -297h-233z" />
<glyph unicode="&#xea;" horiz-adv-x="1150" d="M90 500q0 113 37 209t102 163t155 104.5t193 37.5q145 0 256 -65t170 -179t59 -259q0 -55 -6 -91h-728q22 -106 98.5 -167t186.5 -61q155 0 249 118l160 -137q-68 -87 -174.5 -138t-246.5 -51q-145 0 -261 63t-183 181.5t-67 271.5zM256 1134l231 301h206l241 -301h-225 l-112 154h-6l-111 -154h-224zM332 605h500q-22 93 -84.5 147t-158.5 54q-95 0 -164 -52.5t-93 -148.5z" />
<glyph unicode="&#xeb;" horiz-adv-x="1150" d="M90 500q0 113 37 209t102 163t155 104.5t193 37.5q145 0 256 -65t170 -179t59 -259q0 -55 -6 -91h-728q22 -106 98.5 -167t186.5 -61q155 0 249 118l160 -137q-68 -87 -174.5 -138t-246.5 -51q-145 0 -261 63t-183 181.5t-67 271.5zM237 1300q0 63 45 107.5t110 44.5 q63 0 108.5 -45t45.5 -107q0 -63 -45.5 -107.5t-108.5 -44.5q-65 0 -110 44.5t-45 107.5zM332 605h500q-22 93 -84.5 147t-158.5 54q-95 0 -164 -52.5t-93 -148.5zM647 1300q0 61 44.5 105.5t107.5 44.5q62 0 107 -44.5t45 -105.5t-45 -105t-107 -44q-63 0 -107.5 43.5 t-44.5 105.5z" />
<glyph unicode="&#xec;" horiz-adv-x="558" d="M-23 1435l253 -1l164 -296h-233zM164 0v999h229v-999h-229z" />
<glyph unicode="&#xed;" horiz-adv-x="557" d="M164 0v999h229v-999h-229zM172 1138l235 296l252 1l-254 -297h-233z" />
<glyph unicode="&#xee;" horiz-adv-x="557" d="M-61 1134l231 301h206l241 -301h-225l-112 154h-6l-111 -154h-224zM164 0v999h229v-999h-229z" />
<glyph unicode="&#xef;" horiz-adv-x="557" d="M-55 1300q0 63 45 107.5t110 44.5q63 0 108.5 -45t45.5 -107q0 -63 -45.5 -107.5t-108.5 -44.5q-65 0 -110 44.5t-45 107.5zM164 0v999h229v-999h-229zM308 1300q0 61 44.5 105.5t107.5 44.5q62 0 107 -44.5t45 -105.5t-45 -105t-107 -44q-63 0 -107.5 43.5t-44.5 105.5z " />
<glyph unicode="&#xf0;" horiz-adv-x="1220" d="M92 474q0 113 37.5 208t103 159t154 99.5t189.5 35.5q117 0 223 -53l2 3q-89 155 -245 264l-136 -105l-100 114l92 73v3q-79 38 -163 66l112 176q125 -43 231 -103l142 112l100 -121l-104 -80v-3q188 -146 293 -351t105 -452v-4q0 -154 -66 -275t-185.5 -188.5 t-272.5 -67.5q-142 0 -259.5 63t-185 175.5t-67.5 251.5zM325 489q0 -128 81.5 -212.5t202.5 -84.5q124 0 204 84.5t80 212.5q0 124 -81.5 205t-205.5 81q-121 0 -201 -83.5t-80 -202.5z" />
<glyph unicode="&#xf1;" horiz-adv-x="1215" d="M149 0v999h229v-137h3q63 74 150 113t185 39q172 0 269.5 -104.5t97.5 -321.5v-589h-229v530q0 78 -14 132t-43 85.5t-67.5 45.5t-92.5 14q-118 0 -188.5 -80t-70.5 -224v-502h-229zM218 1201q32 104 91.5 164.5t141.5 60.5q37 0 72 -10t52 -19t49 -28q2 -1 14.5 -9 t15 -9.5t13.5 -8t15 -8.5t13.5 -6t15.5 -5.5t14.5 -3t16.5 -1.5q36 0 66.5 27.5t50.5 77.5l138 -46q-30 -114 -89.5 -179t-137.5 -65q-34 0 -69.5 11t-56.5 22.5t-53 31.5q-25 15 -40 23t-36 15t-39 7q-76 0 -118 -106z" />
<glyph unicode="&#xf2;" horiz-adv-x="1229" d="M90 498q0 147 64.5 264t185 184.5t275.5 67.5q152 0 271 -64.5t186 -182.5t67 -269q0 -150 -67 -267.5t-186.5 -182t-270.5 -64.5q-116 0 -215 39t-166.5 107.5t-105.5 163.5t-38 204zM270 1435l253 -1l234 -296h-233zM323 498q0 -130 82.5 -218t209.5 -88 q123 0 207 86.5t84 219.5q0 136 -83 222t-208 86q-130 0 -211 -88t-81 -220z" />
<glyph unicode="&#xf3;" horiz-adv-x="1229" d="M90 498q0 147 64.5 264t185 184.5t275.5 67.5q152 0 271 -64.5t186 -182.5t67 -269q0 -150 -67 -267.5t-186.5 -182t-270.5 -64.5q-116 0 -215 39t-166.5 107.5t-105.5 163.5t-38 204zM323 498q0 -130 82.5 -218t209.5 -88q123 0 207 86.5t84 219.5q0 136 -83 222 t-208 86q-130 0 -211 -88t-81 -220zM492 1138l235 296l252 1l-254 -297h-233z" />
<glyph unicode="&#xf4;" horiz-adv-x="1229" d="M90 498q0 147 64.5 264t185 184.5t275.5 67.5q152 0 271 -64.5t186 -182.5t67 -269q0 -150 -67 -267.5t-186.5 -182t-270.5 -64.5q-116 0 -215 39.5t-166.5 107.5t-105.5 163t-38 204zM275 1134l231 301h206l241 -301h-225l-112 154h-6l-111 -154h-224zM323 498 q0 -130 82.5 -218t209.5 -88q123 0 207 86.5t84 219.5q0 136 -83 222t-208 86q-129 0 -210.5 -88t-81.5 -220z" />
<glyph unicode="&#xf5;" horiz-adv-x="1229" d="M90 498q0 147 64.5 264t185 184.5t275.5 67.5q152 0 271 -64.5t186 -182.5t67 -269q0 -150 -67 -267.5t-186.5 -182t-270.5 -64.5q-116 0 -215 39t-166.5 107.5t-105.5 163.5t-38 204zM226 1201q32 104 91.5 164.5t141.5 60.5q37 0 72 -10t52 -19t49 -28q1 -1 14 -9 t15.5 -9.5t13.5 -8t15 -8.5t13.5 -6.5t15.5 -5.5t14.5 -2.5t16.5 -1.5q36 0 66.5 27.5t50.5 77.5l138 -46q-30 -114 -89.5 -179t-137.5 -65q-34 0 -69.5 11t-56.5 22.5t-53 31.5q-25 15 -40 23t-36 15t-39 7q-76 0 -118 -106zM323 498q0 -130 82.5 -218t209.5 -88 q123 0 207 86.5t84 219.5q0 136 -83 222t-208 86q-129 0 -210.5 -88t-81.5 -220z" />
<glyph unicode="&#xf6;" horiz-adv-x="1229" d="M90 498q0 147 64.5 264t185 184.5t275.5 67.5q152 0 271 -64.5t186 -182.5t67 -269q0 -150 -67 -267.5t-186.5 -182t-270.5 -64.5q-116 0 -215 39t-166.5 107.5t-105.5 163.5t-38 204zM256 1300q0 63 45 107.5t110 44.5q63 0 108.5 -45t45.5 -107q0 -63 -45.5 -107.5 t-108.5 -44.5q-65 0 -110 44.5t-45 107.5zM323 498q0 -130 82.5 -218t209.5 -88q123 0 207 86.5t84 219.5q0 136 -83 222t-208 86q-130 0 -211 -88t-81 -220zM666 1300q0 61 44.5 105.5t107.5 44.5q62 0 107 -44.5t45 -105.5t-45 -105t-107 -44q-63 0 -107.5 43.5 t-44.5 105.5z" />
<glyph unicode="&#xf7;" horiz-adv-x="1173" d="M121 462v210h968v-210h-968zM439 147q0 63 45 107.5t110 44.5q63 0 108.5 -45t45.5 -107q0 -63 -45.5 -107.5t-108.5 -44.5q-65 0 -110 44.5t-45 107.5zM439 965q0 63 45 107.5t110 44.5q63 0 108.5 -45t45.5 -107q0 -63 -45.5 -107.5t-108.5 -44.5q-65 0 -110 44.5 t-45 107.5z" />
<glyph unicode="&#xf8;" horiz-adv-x="1229" d="M90 498q0 147 64.5 264t185 184.5t275.5 67.5q177 0 310 -89l120 129l120 -113l-121 -130q95 -135 95 -313q0 -150 -67 -267.5t-186.5 -182t-270.5 -64.5q-155 0 -277 69l-104 -112l-123 114l97 104q-118 140 -118 339zM323 498q0 -94 45 -168l404 432q-71 44 -157 44 q-130 0 -211 -88t-81 -220zM492 218q57 -26 123 -26q123 0 207 86.5t84 219.5q0 72 -27 136z" />
<glyph unicode="&#xf9;" horiz-adv-x="1183" d="M130 391v608h229v-546q0 -99 21.5 -156.5t63.5 -80.5t113 -23q51 0 97 21.5t82 61.5t57 103.5t21 141.5v478h229v-999h-229v130h-3q-59 -71 -139 -108.5t-169 -37.5q-85 0 -151.5 22.5t-117 69.5t-77.5 126.5t-27 188.5zM265 1435l253 -1l234 -296h-233z" />
<glyph unicode="&#xfa;" horiz-adv-x="1183" d="M130 391v608h229v-546q0 -99 21.5 -156.5t63.5 -80.5t113 -23q51 0 97 21.5t82 61.5t57 103.5t21 141.5v478h229v-999h-229v130h-3q-59 -71 -139 -108.5t-169 -37.5q-85 0 -151.5 22.5t-117 69.5t-77.5 126.5t-27 188.5zM470 1138l235 296l252 1l-254 -297h-233z" />
<glyph unicode="&#xfb;" horiz-adv-x="1183" d="M130 391v608h229v-546q0 -99 21.5 -156.5t63.5 -80.5t113 -23q107 0 182 87t75 241v478h229v-999h-229v130h-3q-59 -71 -139 -108.5t-169 -37.5q-85 0 -151.5 22.5t-117 69.5t-77.5 126.5t-27 188.5zM248 1134l231 301h206l241 -301h-225l-112 154h-6l-111 -154h-224z " />
<glyph unicode="&#xfc;" horiz-adv-x="1183" d="M130 391v608h229v-546q0 -99 21.5 -156.5t63.5 -80.5t113 -23q51 0 97 21.5t82 61.5t57 103.5t21 141.5v478h229v-999h-229v130h-3q-59 -71 -139 -108.5t-169 -37.5q-85 0 -151.5 22.5t-117 69.5t-77.5 126.5t-27 188.5zM229 1300q0 63 45 107.5t110 44.5q63 0 108.5 -45 t45.5 -107q0 -63 -45.5 -107.5t-108.5 -44.5q-65 0 -110 44.5t-45 107.5zM639 1300q0 61 44.5 105.5t107.5 44.5q62 0 107 -44.5t45 -105.5t-45 -105t-107 -44q-63 0 -107.5 43.5t-44.5 105.5z" />
<glyph unicode="&#xfd;" horiz-adv-x="1095" d="M39 999h241l276 -674h2l257 674h240l-549 -1404h-241l180 461zM392 1138l235 296l252 1l-254 -297h-233z" />
<glyph unicode="&#xfe;" horiz-adv-x="1271" d="M149 -405v1913h229v-630h4q116 136 317 136q102 0 191 -39t153 -107t101 -165t37 -208q0 -114 -37 -210t-101 -162t-153.5 -102.5t-192.5 -36.5q-201 0 -315 138h-4v-527h-229zM369 494q0 -134 84 -218t208 -84q127 0 207 84.5t80 217.5q0 141 -82.5 226.5t-205.5 85.5 q-128 0 -209.5 -89t-81.5 -223z" />
<glyph unicode="&#xff;" horiz-adv-x="1095" d="M39 999h241l276 -674h2l257 674h240l-549 -1404h-241l180 461zM190 1300q0 63 45 107.5t110 44.5q63 0 108.5 -45t45.5 -107q0 -63 -45.5 -107.5t-108.5 -44.5q-65 0 -110 44.5t-45 107.5zM600 1300q0 61 44.5 105.5t107.5 44.5q62 0 107 -44.5t45 -105.5t-45 -105 t-107 -44q-63 0 -107.5 43.5t-44.5 105.5z" />
<glyph unicode="&#x152;" horiz-adv-x="1980" d="M112 729q0 153 54.5 287t150 231t234.5 153t301 55h979v-222h-673v-403h551v-222h-551v-386h714v-222h-1020q-162 0 -301 56.5t-234.5 154t-150 231.5t-54.5 287zM368 729q0 -105 37.5 -198t102 -159.5t154 -104.5t190.5 -37l69 1v994h-69q-101 0 -190.5 -37.5t-154 -103 t-102 -158t-37.5 -197.5z" />
<glyph unicode="&#x153;" horiz-adv-x="1643" d="M62 498q0 145 59.5 263.5t163.5 185.5t232 67q96 0 178.5 -43t140.5 -122h4q60 79 146 122t188 43q118 0 212 -64.5t146.5 -179.5t52.5 -259q0 -51 -6 -91h-611q17 -105 75 -166.5t148 -61.5q56 0 108.5 33.5t85.5 84.5l159 -137q-58 -84 -157 -136.5t-208 -52.5 q-105 0 -192 43.5t-148 122.5h-3q-59 -80 -144 -123t-185 -43q-132 0 -234 67.5t-156.5 184t-54.5 262.5zM295 498q0 -131 58 -218.5t153 -87.5q93 0 158.5 86.5t65.5 219.5q0 136 -60 222t-154 86q-92 0 -156.5 -89t-64.5 -219zM972 612h385q-19 90 -68 142t-122 52 q-75 0 -125.5 -51t-69.5 -143z" />
<glyph unicode="&#x178;" horiz-adv-x="1279" d="M28 1455h283l325 -564h6l323 564h286l-489 -812v-643h-248v643zM284 1773q0 63 45 107.5t110 44.5q63 0 108.5 -45t45.5 -107q0 -63 -45.5 -107.5t-108.5 -44.5q-65 0 -110 44.5t-45 107.5zM694 1773q0 61 44.5 105.5t107.5 44.5q62 0 107 -44.5t45 -105.5t-45 -105 t-107 -44q-63 0 -107.5 43.5t-44.5 105.5z" />
<glyph unicode="&#x2c6;" horiz-adv-x="976" d="M149 1097l231 301h206l241 -301h-225l-112 154h-6l-111 -154h-224z" />
<glyph unicode="&#x2dc;" horiz-adv-x="1013" d="M117 1164q32 104 91.5 164.5t141.5 60.5q37 0 72 -10t52 -19t49 -28q3 -2 13 -8.5t13 -8.5t12 -7.5t13.5 -7.5t12.5 -6t13.5 -5.5t12.5 -3.5t14 -3t14 -1q36 0 66.5 27.5t50.5 77.5l138 -46q-30 -114 -89.5 -179t-137.5 -65q-34 0 -69.5 11t-56.5 22.5t-53 31.5 q-25 15 -40 23t-36 15t-39 7q-76 0 -118 -106z" />
<glyph unicode="&#x2000;" horiz-adv-x="994" />
<glyph unicode="&#x2001;" horiz-adv-x="1988" />
<glyph unicode="&#x2002;" horiz-adv-x="994" />
<glyph unicode="&#x2003;" horiz-adv-x="1988" />
<glyph unicode="&#x2004;" horiz-adv-x="662" />
<glyph unicode="&#x2005;" horiz-adv-x="497" />
<glyph unicode="&#x2006;" horiz-adv-x="331" />
<glyph unicode="&#x2007;" horiz-adv-x="331" />
<glyph unicode="&#x2008;" horiz-adv-x="248" />
<glyph unicode="&#x2009;" horiz-adv-x="397" />
<glyph unicode="&#x200a;" horiz-adv-x="110" />
<glyph unicode="&#x2010;" horiz-adv-x="834" d="M109 521v223h616v-223h-616z" />
<glyph unicode="&#x2011;" horiz-adv-x="834" d="M109 521v223h616v-223h-616z" />
<glyph unicode="&#x2012;" horiz-adv-x="834" d="M109 521v223h616v-223h-616z" />
<glyph unicode="&#x2013;" horiz-adv-x="1174" d="M109 508v204h956v-204h-956z" />
<glyph unicode="&#x2014;" horiz-adv-x="2130" d="M109 508v204h1912v-204h-1912z" />
<glyph unicode="&#x2018;" horiz-adv-x="440" d="M65 933l123 519h187l-65 -519h-245z" />
<glyph unicode="&#x2019;" horiz-adv-x="440" d="M65 936l65 519h245l-123 -519h-187z" />
<glyph unicode="&#x201a;" horiz-adv-x="488" d="M56 -270l65 518h245l-142 -518h-168z" />
<glyph unicode="&#x201c;" horiz-adv-x="793" d="M65 934l123 519h187l-63 -519h-247zM418 934l123 519h187l-65 -519h-245z" />
<glyph unicode="&#x201d;" horiz-adv-x="793" d="M65 936l65 519h245l-123 -519h-187zM418 936l63 519h247l-123 -519h-187z" />
<glyph unicode="&#x201e;" horiz-adv-x="841" d="M56 -159l65 519h245l-123 -519h-187zM409 -159l63 519h247l-123 -519h-187z" />
<glyph unicode="&#x2022;" horiz-adv-x="873" d="M206 647q0 96 67 162.5t163 66.5t163.5 -66.5t67.5 -162.5q0 -95 -67.5 -161.5t-163.5 -66.5q-95 0 -162.5 66.5t-67.5 161.5z" />
<glyph unicode="&#x2026;" horiz-adv-x="2048" d="M186 136q0 63 45.5 108t110.5 45q63 0 108.5 -45t45.5 -108t-45.5 -107.5t-108.5 -44.5q-65 0 -110.5 44.5t-45.5 107.5zM869 136q0 63 45.5 108t110.5 45q63 0 108.5 -45t45.5 -108t-45.5 -107.5t-108.5 -44.5q-65 0 -110.5 44.5t-45.5 107.5zM1552 136q0 63 45.5 108 t110.5 45q63 0 108.5 -45t45.5 -108t-45.5 -107.5t-108.5 -44.5q-65 0 -110.5 44.5t-45.5 107.5z" />
<glyph unicode="&#x202f;" horiz-adv-x="397" />
<glyph unicode="&#x2039;" horiz-adv-x="631" d="M94 511l248 437h229l-250 -437l253 -445h-228z" />
<glyph unicode="&#x203a;" horiz-adv-x="621" d="M57 949h228l252 -445l-248 -437h-229l250 437z" />
<glyph unicode="&#x205f;" horiz-adv-x="497" />
<glyph unicode="&#x20ac;" horiz-adv-x="1233" d="M23 478v143h116q-2 38 -2 59q0 23 2 65h-116v143h140q27 107 82 196.5t133.5 155.5t183 102.5t224.5 36.5q210 0 382 -120l-140 -175q-109 75 -242 75q-122 0 -218.5 -73t-144.5 -198h492v-143h-525q-3 -32 -3 -65q0 -30 3 -59h525v-143h-493q47 -126 146 -199t218 -73 q144 0 258 81l133 -179q-175 -122 -391 -122q-106 0 -205 32t-183 92.5t-146.5 155t-91.5 212.5h-137z" />
<glyph unicode="&#x2122;" horiz-adv-x="1413" d="M47 1323v132h501v-132h-177v-531h-147v531h-177zM640 792v663h150l190 -363l189 363h150v-663h-145v392l-147 -265h-95l-149 265v-392h-143z" />
<glyph unicode="&#x25fc;" horiz-adv-x="1000" d="M0 0v1000h1000v-1000h-1000z" />
</font>
</defs>
</svg>
