<svg height="40" width="116" xmlns="http://www.w3.org/2000/svg"><g fill="#009bb4"><path d="M25.017 30.965c-1.667-2.985-2.584-6.924-2.584-11.099s.917-8.118 2.584-11.1l.041-.07L0 20.256v.038l25.217 11.01a5.566 5.566 0 0 1-.2-.339z"/><path d="M36.788 9.932c-1.4-2.477-3.194-3.845-5.048-3.845a3.937 3.937 0 0 0-1.356.246l-.642.288c-1.117.613-2.162 1.735-3.05 3.304-1.511 2.679-2.344 6.255-2.344 10.075s.832 7.396 2.343 10.068c1.401 2.478 3.194 3.845 5.048 3.845s3.648-1.364 5.048-3.845C38.298 27.396 39.13 23.82 39.13 20s-.83-7.396-2.342-10.068zM28.946 4.054l1.489-.685A19.563 19.563 0 0 0 19.424 0C9.307 0 .987 7.625 0 17.391L28.156 4.42c.255-.139.519-.26.79-.365zM19.363 40a19.029 19.029 0 0 0 11.072-3.55L0 22.61C1.322 32.435 9.484 40 19.363 40zM43.478 30.399l3.102-3.694c1.71 1.831 3.766 2.607 5.317 2.607 1.773 0 2.533-.868 2.533-1.862 0-1.21-.792-1.738-3.324-2.576-3.418-1.148-6.835-2.731-6.835-7.08 0-3.663 3.197-6.425 7.375-6.487 2.943-.062 5.634 1.055 7.786 2.855l-2.977 3.79c-1.925-1.49-3.323-2.076-4.59-2.076-1.297 0-2.089.651-2.089 1.706-.031 1.056.792 1.615 3.229 2.55C56.962 21.621 60 22.614 60 26.866c0 5.184-4.524 7.046-8.26 7.046-2.88-.007-5.856-1.093-8.262-3.514zM61.74 13.168c0-1.491 1.268-2.733 3.025-2.733s3.061 1.21 3.061 2.733c0 1.584-1.301 2.795-3.059 2.795s-3.028-1.211-3.028-2.795zm.487 4.69h5.077v15.185h-5.077zM71.198 38.493l1.121-4.073c1.314.77 3.043 1.38 4.773 1.38 2.722 0 4.099-1.348 4.099-2.983v-1.444l-.064-.032c-1.057 1.09-2.498 1.732-4.324 1.732-4.227 0-7.238-3.27-7.238-7.729 0-4.65 3.01-7.953 6.95-7.953 1.698 0 3.299.61 4.48 1.828h.065V17.68h5.027v13.629c0 5.1-2.113 8.691-8.454 8.691-2.523.005-4.513-.449-6.435-1.507zm10.088-13.277c0-1.988-1.44-3.368-3.298-3.368-1.922 0-3.33 1.38-3.33 3.4s1.44 3.367 3.33 3.367c1.89 0 3.298-1.41 3.298-3.399zM87.826 10.435h5.035v9.633l.065.032c1.226-1.372 2.936-2.073 4.873-2.073 3.259 0 5.68 1.563 5.68 6.476v9.41h-5.035v-8.167c0-2.522-.871-3.285-2.65-3.285-1.778 0-2.933 1.148-2.933 3.573v7.879h-5.035zM106.925 28.843v-6.5h-1.708v-3.918h1.708V13.54l4.876-.498v5.382h3.665v3.918H111.8v5.598c0 .996.217 1.71 1.15 1.71a3.868 3.868 0 0 0 1.49-.341l1.213 3.577c-1.056.59-2.143 1.026-4.25 1.026-2.613 0-4.477-1.617-4.477-5.07z"/></g></svg>