<svg xmlns="http://www.w3.org/2000/svg" width="120" height="120" viewBox="0 0 120 120">
    <g fill="none" fill-rule="nonzero">
        <path fill="#00193C" d="M60 0a59.771 59.771 0 0 0-20.869 3.73l1.739 4.688A54.867 54.867 0 0 1 60 5c30.328 0 55 24.672 55 55s-24.672 55-55 55C29.674 115 5 90.328 5 60c0-16.489 7.408-31.988 20-42.392V35h5V10H5v5h15.318A59.997 59.997 0 0 0 .001 60c0 33.081 26.918 60 60 60 33.081 0 60-26.919 60-60S93.082 0 60 0H60z"/>
        <path fill="#009CB4" d="M45 80h-5v5h40v-5h-5v-8.535L63.535 60 75 48.535V40h5v-5H40v5h5v8.535L56.465 60 45 71.465V80zm5-33.535V40h20v6.465l-10 10-10-10zm10 17.07l10 10V80H50v-6.465l10-10z"/>
        <path fill="#00193C" d="M45 95h5v5h-5zM57.5 95h5v5h-5zM70 95h5v5h-5z"/>
    </g>
</svg>
