<svg xmlns="http://www.w3.org/2000/svg" width="75" height="75" viewBox="0 0 75 75">
    <g fill="none" fill-rule="nonzero">
        <path fill="#00193C" d="M5.624 5.624h17.502V.391H.39v22.736h5.234V5.624zM51.874.391v5.233h17.501v17.502h5.234V.39H51.873zm17.502 68.985H51.874v5.234H74.61V51.874h-5.234v17.502zM5.624 51.873H.391V74.61h22.736v-5.233H5.625V51.873z"/>
        <path fill="#009CB4" d="M63.752 37.5c0-14.453-11.799-26.252-26.252-26.252S11.248 23.047 11.248 37.5 23.047 63.752 37.5 63.752 63.752 51.953 63.752 37.5zM25.08 31.561c0-2.188 1.797-3.906 3.906-3.906 2.188 0 3.906 1.797 3.906 3.906 0 2.188-1.797 3.907-3.906 3.907-2.188.079-3.906-1.719-3.906-3.907zm22.186 15.08c-.156.155-3.595 4.375-9.766 4.375-6.25 0-9.686-4.14-9.845-4.376-.937-1.092-.702-2.734.39-3.671 1.093-.937 2.735-.702 3.672.39.079.08 2.108 2.424 5.78 2.424 3.67 0 5.703-2.344 5.78-2.423.936-1.093 2.578-1.252 3.67-.312 1.1.858 1.255 2.5.318 3.592zm-1.252-11.094c-2.188 0-3.906-1.797-3.906-3.906 0-2.188 1.798-3.906 3.906-3.906 2.188 0 3.907 1.797 3.907 3.906s-1.718 3.906-3.907 3.906z"/>
    </g>
</svg>
