<svg xmlns="http://www.w3.org/2000/svg" width="108" height="70" viewBox="0 0 108 70">
    <g fill="none">
        <path fill="#009CB4" d="M91.812 37.055c8.899 0 16.051 7.24 16.051 16.26 0 9.019-7.152 16.3-16.05 16.3-8.9 0-16.052-7.282-16.052-16.3 0-9.02 7.153-16.26 16.051-16.26zM90.528.102c4.164 0 7.264 3.715 7.264 7.87v23.904c-1.642-.463-3.362-.74-5.138-.806V7.97c0-.359-.04-.663-.12-.958L50.601 44.326c-.973.859-2.438.859-3.41 0L5.295 7.012c-.08.294-.16.594-.16.958v48.54c0 1.763 1.068 2.757 2.126 2.757h63.29c.492 1.808 1.202 3.523 2.1 5.114H7.263C3.1 64.38 0 60.665 0 56.51V7.97C0 3.816 3.1.1 7.263.1zm-3.691 5.112H10.955l37.921 33.799 37.96-33.799z"/>
        <path fill="#FFF" d="M98.37 46.897c-.479.069-.916.297-1.242.65L89.32 55.45l-3.79-3.837c-.387-.407-.922-.639-1.482-.647-.563-.008-1.102.208-1.502.602-.4.394-.625.931-.621 1.488 0 .561.229 1.094.633 1.484l5.26 5.334c.391.406.935.634 1.502.634.568 0 1.11-.228 1.503-.634l9.31-9.432c.645-.63.809-1.602.408-2.407-.4-.809-1.278-1.268-2.172-1.138z"/>
    </g>
</svg>
