<svg height="570" width="558" xmlns="http://www.w3.org/2000/svg"><path d="M356.116 440.914a79.391 79.391 0 0 0 2.847 4.833L0 288.753v-.55l356.697-164.819c-.194.343-.401.673-.58 1.016-23.738 42.506-36.795 98.727-36.795 158.257s13.057 115.697 36.794 158.257zm168.557-299.397C546.175 179.483 558 230.3 558 284.572c0 54.272-11.839 105.076-33.34 143.042-19.927 35.248-45.446 54.627-71.828 54.627-26.383 0-51.887-19.42-71.828-54.627-21.502-37.966-33.34-88.756-33.34-143.042s11.852-105.089 33.354-143.15c12.634-22.288 27.499-38.24 43.395-46.939l9.134-4.097a56.095 56.095 0 0 1 19.299-3.496c26.382 0 51.9 19.434 71.827 54.627zM411.665 57.53a93.276 93.276 0 0 0-11.235 5.173L0 246.768C14.04 108.192 132.357 0 276.246 0c55.887-.082 110.485 16.583 156.595 47.797zM275.38 569.131C134.887 569.131 18.804 461.794 0 322.363l432.841 196.406c-46.304 32.884-101.229 50.451-157.46 50.362z" fill="#009bb4"/></svg>