<svg xmlns="http://www.w3.org/2000/svg" width="163" height="44" viewBox="0 0 163 44">
    <g fill="#009CB4" fill-rule="evenodd">
        <path fill-rule="nonzero" d="M61.398 19.09c-3.456 0-6.372-2.268-6.372-6.444 0-3.618 2.268-6.552 6.354-6.552 1.836 0 3.636.792 4.986 2.448l-1.17.972C64.134 8.2 62.82 7.588 61.38 7.588c-2.898 0-4.716 2.124-4.716 5.058 0 3.06 2.034 4.968 4.734 4.968 1.656 0 2.916-.792 3.816-1.926l1.17.99c-1.116 1.386-2.736 2.412-4.986 2.412zm11.426.018c-2.718 0-4.536-1.962-4.536-4.482 0-2.52 1.818-4.5 4.536-4.5 2.592 0 4.518 1.836 4.518 4.5 0 2.664-1.926 4.482-4.518 4.482zm0-1.332c1.674 0 3.024-1.278 3.024-3.15 0-1.872-1.332-3.168-3.024-3.168-1.836 0-3.042 1.422-3.042 3.168 0 1.746 1.224 3.15 3.042 3.15zM80.02 19v-8.766h1.458v1.584h.018c.684-1.062 1.836-1.692 3.186-1.692 1.89 0 3.15 1.17 3.15 3.672V19h-1.458v-4.788c0-2.052-.882-2.754-2.16-2.754-1.656 0-2.736 1.188-2.736 3.168V19H80.02zm14.594.108c-2.43 0-4.302-1.764-4.302-4.428 0-2.592 1.818-4.554 4.284-4.554 1.332 0 2.466.612 3.132 1.674h.018V5.752h1.458V19H97.8v-1.62h-.018c-.63 1.062-1.746 1.728-3.168 1.728zm.198-1.332c1.656 0 2.988-1.242 2.988-3.096 0-1.8-1.206-3.222-2.97-3.222-1.674 0-3.024 1.278-3.024 3.222 0 1.764 1.224 3.096 3.006 3.096zm8.456-9.144a1.049 1.049 0 0 1-1.062-1.044c0-.576.468-1.044 1.062-1.044.594 0 1.062.468 1.062 1.044 0 .576-.468 1.044-1.062 1.044zM102.53 19v-8.766h1.458V19h-1.458zm7.268.108c-1.548 0-2.268-.954-2.268-2.718v-4.896h-1.134v-1.26h1.134V7.246l1.458-.162v3.15h2.898v1.26h-2.898v4.68c0 1.062.234 1.566 1.062 1.566.522 0 1.062-.216 1.494-.45l.378 1.278c-.486.288-1.08.54-2.124.54zm5.324-10.476a1.049 1.049 0 0 1-1.062-1.044c0-.576.468-1.044 1.062-1.044.594 0 1.062.468 1.062 1.044 0 .576-.468 1.044-1.062 1.044zM114.384 19v-8.766h1.458V19h-1.458zm8.78.108c-2.718 0-4.536-1.962-4.536-4.482 0-2.52 1.818-4.5 4.536-4.5 2.592 0 4.518 1.836 4.518 4.5 0 2.664-1.926 4.482-4.518 4.482zm0-1.332c1.674 0 3.024-1.278 3.024-3.15 0-1.872-1.332-3.168-3.024-3.168-1.836 0-3.042 1.422-3.042 3.168 0 1.746 1.224 3.15 3.042 3.15zM130.36 19v-8.766h1.458v1.584h.018c.684-1.062 1.836-1.692 3.186-1.692 1.89 0 3.15 1.17 3.15 3.672V19h-1.458v-4.788c0-2.052-.882-2.754-2.16-2.754-1.656 0-2.736 1.188-2.736 3.168V19h-1.458zm14.558.108c-2.412 0-4.266-1.764-4.266-4.428 0-2.592 1.782-4.554 4.266-4.554 1.296 0 2.43.612 3.06 1.674l.036-.018v-1.548h1.458V19h-1.404v-1.584h-.018c-.63 1.044-1.71 1.692-3.132 1.692zm.216-1.332c1.62 0 2.934-1.242 2.934-3.096 0-1.8-1.206-3.222-2.934-3.222-1.656 0-3.006 1.278-3.006 3.222 0 1.764 1.206 3.096 3.006 3.096zM152.708 19V5.752h1.458V19h-1.458zM58.05 37V26.488h-3.528V24.22h9.594v2.268H60.57V37h-2.52zm10.904.144c-1.38 0-2.502-.426-3.366-1.278-.864-.852-1.296-1.938-1.296-3.258s.432-2.406 1.296-3.258c.864-.852 1.986-1.278 3.366-1.278 1.368 0 2.49.42 3.366 1.26.876.84 1.314 1.932 1.314 3.276 0 1.344-.438 2.436-1.314 3.276-.876.84-1.998 1.26-3.366 1.26zm0-2.106c.648 0 1.191-.228 1.629-.684.438-.456.657-1.038.657-1.746 0-.72-.216-1.305-.648-1.755-.432-.45-.978-.675-1.638-.675-.672 0-1.221.231-1.647.693-.426.462-.639 1.041-.639 1.737 0 .684.216 1.26.648 1.728.432.468.978.702 1.638.702zm10.688-1.53h-.036l-1.224 1.386V37h-2.358V23.752h2.358v8.01h.018l3.15-3.546h2.754l-3.096 3.492L84.358 37H81.73l-2.088-3.492zm14.288-.99c0 .468-.018.75-.054.846h-6.174c.144.528.414.942.81 1.242.396.3.876.45 1.44.45.852.012 1.554-.318 2.106-.99l1.53 1.422c-.876 1.104-2.142 1.656-3.798 1.656-1.308 0-2.388-.42-3.24-1.26-.852-.84-1.278-1.938-1.278-3.294 0-1.32.411-2.403 1.233-3.249.822-.846 1.863-1.269 3.123-1.269 1.272 0 2.307.417 3.105 1.251.798.834 1.197 1.899 1.197 3.195zm-4.23-2.376c-.492 0-.912.132-1.26.396s-.588.642-.72 1.134h3.87c-.264-1.02-.894-1.53-1.89-1.53zm11.822-2.07c2.136 0 3.204 1.236 3.204 3.708V37h-2.358v-4.626c0-.804-.138-1.371-.414-1.701-.276-.33-.702-.495-1.278-.495-.612 0-1.098.207-1.458.621-.36.414-.54 1.005-.54 1.773V37H96.32v-8.784h2.358v1.134h.036c.72-.852 1.656-1.278 2.808-1.278zm8.798 9.072c-1.38 0-2.568-.426-3.564-1.278l1.152-1.638c.72.684 1.53 1.026 2.43 1.026.336 0 .6-.066.792-.198a.607.607 0 0 0 .288-.522c0-.192-.114-.354-.342-.486-.228-.132-.648-.294-1.26-.486-.852-.288-1.515-.645-1.989-1.071-.474-.426-.711-1.023-.711-1.791 0-.78.3-1.413.9-1.899.6-.486 1.356-.729 2.268-.729 1.2 0 2.268.366 3.204 1.098l-1.134 1.728c-.66-.624-1.362-.936-2.106-.936-.216 0-.414.057-.594.171a.551.551 0 0 0-.27.495c0 .168.105.321.315.459.21.138.549.297 1.017.477.48.18.834.315 1.062.405.228.09.498.222.81.396.312.174.531.342.657.504.126.162.24.375.342.639.102.264.153.564.153.9 0 .816-.291 1.476-.873 1.98-.582.504-1.431.756-2.547.756z"/>
        <path d="M22 44C9.85 44 0 34.15 0 22S9.85 0 22 0s22 9.85 22 22-9.85 22-22 22zm0-3c9.389 0 17-7.611 17-17S31.389 7 22 7 5 14.611 5 24s7.611 17 17 17z"/>
    </g>
</svg>
